<svg width="5184" height="2568" viewBox="0 0 5184 2568" fill="none" xmlns="http://www.w3.org/2000/svg">
<g clip-path="url(#clip0_20_346)">
<path d="M1227.88 2566.37C1226.17 2566.41 1224.21 2566.48 1221.89 2566.57C1233.07 2566.63 1202.65 2567.47 1188.99 2567.34C1185.88 2567.52 1145.08 2566.46 1140.24 2566.05C1113.02 2565.03 1066.33 2561.16 1039.52 2557.18C1018.36 2554.31 1006.68 2552.82 987.548 2549.59C973.042 2547.06 977.236 2547.52 970.427 2546.24C962.579 2544.73 957.585 2543.97 953.197 2543.09C949.586 2542.37 946.408 2541.6 942.431 2540.19C932.767 2538.22 923.104 2536.17 913.462 2533.99C913.505 2533.79 913.548 2533.62 913.613 2533.42C907.581 2531.95 901.571 2530.44 895.583 2528.88C893.767 2528.62 891.951 2528.34 890.135 2528.06C871.197 2522.7 879.283 2524.34 875.889 2522.83C871.803 2521.64 867.738 2520.43 863.653 2519.2C860.366 2518.72 857.059 2518.2 853.773 2517.71C835.57 2512.24 817.497 2506.31 799.575 2499.98C798.494 2499.35 797.413 2498.72 796.332 2498.12C796.224 2498.31 796.094 2498.51 795.986 2498.7C765.612 2487.96 735.671 2476 706.204 2462.82C698.119 2459.85 745.442 2480.67 749.182 2481.88C769.201 2490.51 823.874 2509.08 823.809 2509.58C836.802 2513.4 875.759 2525.06 887.865 2528.71C869.317 2523.76 850.876 2518.38 832.565 2512.54C833.084 2512.97 833.581 2513.4 834.1 2513.81C811.617 2505.56 808.309 2504.45 784.723 2497.15C784.831 2496.78 784.939 2496.43 785.069 2496.09C768.401 2491.53 741.054 2478.12 739.627 2479.27C731.196 2475.68 722.829 2471.98 714.484 2468.18C696.433 2460.05 723.326 2475.16 653.779 2440.81C649.023 2438.36 650.234 2438.45 643.078 2434.8C641.024 2433.72 628.81 2428.38 606.651 2415.9C603.192 2413.96 603.149 2413.44 599.603 2411.34C591.388 2406.56 574.656 2397.61 582.806 2400.79C550.81 2380.97 563.544 2389.96 553.34 2384.23C546.573 2380.32 548.389 2380.43 542.595 2376.94C535.483 2372.56 539.936 2376.92 512.481 2357.77C515.615 2359.84 518.75 2361.9 521.906 2363.95C520.479 2362.7 519.074 2361.42 517.647 2360.17C501.542 2349.83 503.617 2350.07 495.402 2346.03C484.484 2337.42 474.821 2330.29 459.688 2318.79C430.546 2296.11 444.036 2309.39 413.208 2280.57C409.771 2277.91 406.355 2275.23 402.939 2272.5C400.972 2270.95 399.005 2269.39 397.059 2267.81C389.125 2259.79 396.475 2265.3 384.174 2253.82C392.67 2264.01 367.009 2239.49 361.669 2236.31C361.475 2235.6 361.302 2234.91 361.107 2234.19C358.405 2231.58 355.703 2228.94 353.044 2226.3C352.806 2226.5 352.59 2226.69 352.352 2226.91C348.958 2223.21 345.585 2219.51 342.234 2215.77C339.359 2213.29 336.505 2210.8 333.673 2208.29C329.847 2203.39 326.064 2198.44 322.324 2193.46C319.708 2190.59 317.114 2187.67 314.519 2184.77C314.995 2185.98 315.471 2187.22 315.946 2188.43C312.682 2184.62 309.439 2180.82 306.239 2176.97C309.547 2181.81 306.326 2179.74 296.057 2167.97C287.669 2158.18 298.284 2168.26 279.93 2147.48C278.697 2145.99 275.39 2144.26 258.981 2123.76C239.568 2099.01 249.685 2110.55 246.291 2106.08C245.643 2105.21 239.352 2097.89 234.012 2090.64C230.964 2086.54 228.542 2082.23 228.153 2081.67C226.316 2079.12 225.17 2078.77 222.64 2075.21C216.22 2066.17 208.199 2053.63 202.232 2044.53C199.53 2040.4 196.633 2036.73 195.444 2034.87C193.607 2031.99 191.877 2027.97 190.04 2025.03C183.251 2014.24 171.318 1998.7 171.21 1992C162.346 1982.85 153.223 1958.59 152.358 1961.17C136.663 1932.39 98.0094 1853.81 102.917 1854.61C92.7344 1838.74 95.5448 1839.37 92.5615 1832.21C89.2538 1824.19 90.3564 1828.58 87.8054 1822.16C81.9035 1807.17 76.6935 1792.69 71.2672 1777.62C72.6292 1779.83 73.9695 1782.01 75.3531 1784.19C70.4889 1770.4 70.4889 1773.04 66.6408 1763.31C66.0787 1761.86 65.4086 1760.13 64.6519 1758.01C54.0588 1728.07 59.377 1740.42 59.2256 1735.57C58.188 1737.19 47.3138 1701.37 46.5788 1697.61C46.0816 1695.38 50.4701 1704.53 43.7468 1682.61C43.5306 1683.95 43.336 1685.29 43.1198 1686.65C40.958 1676.4 33.0023 1649.1 32.1376 1644.34C31.6836 1642.16 33.4996 1629.73 27.5977 1619.85C27.8787 1618.46 28.1814 1617.08 28.4624 1615.69C25.2629 1604.06 22.2147 1592.37 19.3394 1580.61C20.0312 1578.55 20.7446 1576.48 21.458 1574.42C20.7878 1570.66 20.1393 1566.9 19.5123 1563.14C18.9935 1565.78 18.4963 1568.41 17.999 1571.05C14.259 1547.75 8.89762 1519.23 11.5783 1514.06C10.3461 1509.11 9.13543 1504.14 7.94641 1499.17C8.65982 1495.8 9.39485 1492.42 10.1515 1489.05C7.53565 1465.77 6.86548 1465.44 4.4442 1449.49C5.3738 1450.07 6.28178 1450.66 7.21137 1451.24C5.09276 1439.54 2.69309 1417.99 2.04454 1400.91C1.69864 1392.78 2.71471 1378.84 2.585 1376.91C2.41205 1375.01 -2.56022 1355.79 1.7635 1353.84C0.142104 1325.7 2.77957 1313.4 3.2768 1302.02C3.62269 1294.63 2.75795 1291.17 3.19032 1282.8C3.81726 1270.83 5.33056 1258.85 5.91426 1251.95C6.23854 1248 5.2657 1247.15 5.50351 1244.43C6.62767 1231.55 6.90871 1239.22 8.33554 1225.69C8.46525 1224.43 8.2923 1214.38 9.93531 1203.27C10.8001 1197.04 14.5833 1181.24 14.8211 1179.83C15.7939 1173.56 11.9458 1178.02 18.907 1157.24C18.2368 1157.76 17.5883 1158.26 16.9181 1158.78C17.8261 1150.82 18.8205 1144.92 19.7501 1140.38C21.9552 1129.79 23.8577 1126.95 24.6792 1123.3C24.8089 1122.65 25.1115 1116.06 25.9979 1112.27C27.5112 1105.9 29.392 1103.65 29.7379 1102.24C30.9918 1097.25 34.0184 1080.3 37.9097 1069.64C33.4347 1071.05 41.4119 1031.94 48.2434 1024.76C49.2162 1017.69 50.2107 1010.69 51.3132 1003.59C52.913 1000.74 54.5344 997.887 56.1558 995.077C55.9829 993.001 55.8099 990.904 55.6586 988.786C60.1985 979.403 64.8897 970.107 69.689 960.876C68.3055 959.687 66.9219 958.498 65.5383 957.308C66.6192 954.628 67.7217 951.925 68.8459 949.245C70.8348 947.558 72.8453 945.894 74.8342 944.229C75.7638 940.727 76.7367 937.224 77.7095 933.722C77.1042 932.533 76.4773 931.322 75.8719 930.133C81.5792 911.368 86.465 924.296 92.6263 886.463C95.5448 881.404 98.5066 876.367 101.512 871.373C100.582 863.741 107.673 853.429 111.456 844.241C114.137 837.755 112.559 837.409 116.666 828.74C120.795 820.092 122.006 821.108 122.33 820.438C125.854 813.499 127.367 807.618 130.221 802.646C130.653 801.889 133.204 800.83 136.707 794.452C140.23 788.053 140.641 783.254 146.24 773.914C149.116 769.136 151.213 768.531 153.785 764.315C166 744.361 172.075 719.823 189.499 710.397C190.602 706.441 203.357 680.152 210.815 670.337C222.338 655.031 219.506 662.187 224.262 656.285C224.954 655.463 227.915 650.296 237.709 637.736C239.481 635.487 238.249 635.336 238.487 635.012C245.448 626.018 256.733 612.312 267.737 599.556C274.849 591.32 281.81 583.472 287.172 577.462C288.404 576.121 292.49 566.696 306.52 557.551C320.594 537.445 357.151 509.967 377.537 485.105C380.715 482.035 385.428 479.311 386.855 477.971C399.221 466.578 392.173 467.637 424.45 447.121C420.969 447.704 426.763 440.7 436.643 432.895C451.538 421.221 443.042 432.268 454.824 422.669C454.262 421.913 453.678 421.156 453.116 420.378C482.323 401.094 485.522 393.657 514.361 373.486C524.76 366.265 541.514 357.834 544.044 356.212C544.995 355.564 555.415 346.073 556.539 345.36C562.809 341.317 566.938 340.041 572.407 336.69C590.48 325.578 611.083 310.315 609.807 317.601C614.304 313.666 618.844 309.753 623.405 305.84C645.543 300.673 656.525 285.605 663.27 288.912C666.253 286.015 669.258 283.119 672.263 280.222C711.501 261.089 751.82 243.966 793.046 229.028C841.407 211.516 890.87 196.945 941.09 185.465C944.29 182.374 985.17 174.31 987.354 174.396C997.234 174.007 987.851 180.45 1007.26 175.802C1009.12 173.402 1010.98 171.002 1012.86 168.602C1037.6 163.695 1025.94 167.759 1035.93 167.543C1040 166.657 1038.46 165.273 1043.99 164.322C1074 158.787 1136.35 152.302 1169.77 150.875C1176.49 150.529 1175.52 152.107 1177.62 152.021C1183.35 151.761 1194.68 149.383 1206.24 149.124C1274.45 147.091 1370.02 154.572 1439.98 168.321C1443.38 168.948 1446.68 169.597 1449.95 170.245C1454.75 171.197 1454.96 173.229 1458.21 173.899C1462.68 174.829 1473.06 175.175 1477.75 176.277C1482.18 177.293 1484.69 179.325 1489.4 180.471C1510.93 185.703 1540.72 190.113 1562.39 200.642C1564.27 201.463 1585.73 215.948 1586.06 216.662C1588.18 220.639 1565.95 218.996 1598.68 233.805C1566.88 228.422 1574.67 237.675 1612.41 253.695C1592.63 248.052 1572.74 242.907 1552.77 238.237C1552.51 239.037 1552.23 239.837 1551.97 240.637C1568.7 249.674 1585.86 256.224 1612.43 265.607C1611.33 266.061 1610.25 266.537 1609.15 266.991C1584.37 262.689 1555.55 254.841 1535.99 255.014C1561.43 266.039 1586.38 277.973 1610.73 290.75C1609.23 290.88 1607.74 291.009 1606.25 291.161C1593.43 288.307 1566.08 280.481 1555.3 278.86C1514.28 272.504 1588.44 293.409 1575.21 293.171C1534.13 279.703 1492.32 268.504 1450.03 259.597C1448.95 259.1 1606.47 310.748 1601.02 320.044C1588.24 316.001 1575.42 312.175 1562.54 308.564C1567.62 312.261 1572.63 316.001 1577.63 319.784C1575.88 319.849 1574.15 319.914 1572.4 319.979C1550.67 314.272 1528.83 309.191 1506.91 304.738C1572.7 321.579 1601.9 334.896 1611.33 355.11C1609.49 354.829 1607.66 354.548 1605.84 354.267C1595.92 339.479 1529.44 319.979 1493.57 312.953C1500.08 317.45 1531.51 324.324 1537.46 328.086C1539.15 329.124 1532.21 328.994 1536.14 331.286C1546.6 336.95 1591.92 356.537 1584.05 357.272C1579.21 357.034 1503.65 335.177 1488.71 331.675C1522.46 344.646 1557.26 357.142 1589.09 374.178C1565.8 372.189 1544.94 372.448 1506 360.839C1493.57 359.823 1573.5 391.214 1574.34 394.392C1559.9 390.954 1545.44 387.798 1530.95 384.923C1542.86 388.425 1554.75 392.1 1566.56 395.992C1566.39 396.619 1566.19 397.245 1566.02 397.872C1534.89 389.419 1505.59 385.312 1470.51 375.064C1470.85 378.588 1491.89 384.317 1501.96 387.582C1463.68 384.469 1432.67 377.118 1402.58 368.492C1365.27 357.856 1329.34 345.165 1285.73 339.133C1155.59 320.109 988.867 336.366 846.552 384.144C799.662 399.451 755.171 417.589 714.549 436.592C590.502 494.51 473.74 576.467 379.483 675.612C374.64 680.693 370.749 682.833 368.587 685.168C368.22 685.579 367.831 685.989 367.463 686.4C346.644 708.776 316.27 747.388 298.932 770.866C259.976 820.071 207.097 915 185.305 968.594C175.425 991.013 166.713 1014.71 160.79 1022.9C157.698 1031.4 158.693 1036.87 158.087 1039.16C158.087 1039.18 158.087 1039.2 158.066 1039.24C156.055 1046.55 148.554 1064.39 147.473 1068.5C147.3 1069.12 150.24 1065.86 146.738 1075.61C146.435 1076.47 145.419 1075.31 142.976 1083.65C142.263 1085.83 136.426 1114.37 134.523 1122.5C132.21 1132.03 128.578 1146.19 124.73 1162.15C117.704 1190.86 110.872 1225.3 107.803 1246.4C107.046 1251.39 107.327 1254.35 106.592 1259.63C106.224 1262.35 104.927 1266.35 104.819 1267.2C104.322 1270.89 105.77 1287.3 99.8037 1280.88C98.312 1297.79 101.101 1293.01 102.463 1293.53C100.712 1311.8 96.9933 1320.47 99.8686 1325.44C92.3021 1415.5 95.8475 1506.71 110.505 1596.5C110.959 1596.43 111.434 1596.37 111.888 1596.32C114.569 1623.11 119.541 1631.43 120.082 1647.02C122.611 1656.12 125.27 1665.2 128.016 1674.24C132.967 1695.66 138.566 1716.96 144.814 1738.08C199.4 1925.34 298.197 2099.46 439.367 2232.79C458.91 2251.4 479.101 2269.35 499.877 2286.58C507.789 2293.08 509.389 2295.2 522.684 2305.71C537.385 2317.28 558.809 2332.54 579.087 2346.57C596.815 2358.98 623.405 2376.75 644.159 2389.14C648.829 2391.95 652.396 2393.68 652.915 2394C656.028 2395.84 655.941 2396.34 658.99 2398.11C662.621 2400.21 667.183 2402.41 671.399 2404.81C687.137 2413.76 704.713 2422.76 706.745 2423.79C716.56 2428.9 718.57 2430.34 719.37 2430.75C730.352 2436.29 726.396 2433.87 729.142 2435.25C743.367 2442.3 753.182 2447.96 773.46 2455.94C772.79 2456.01 772.119 2456.07 771.449 2456.14C786.69 2462.95 776.919 2457.76 780.097 2458.97C781.351 2459.57 814.492 2473.32 817.151 2474.21C826.123 2477.73 826.252 2478.19 827.009 2478.49C828.89 2479.27 851.827 2487.25 863.523 2491.53C877.359 2496.63 860.691 2491.83 864.106 2493.15C864.669 2493.38 879.369 2498.14 881.293 2498.98C883.39 2499.96 870.678 2495.83 870.851 2495.98C870.981 2496.15 891.951 2503.39 887.8 2502.42C884.385 2501.86 855.891 2492.02 849.86 2489.99C848.865 2489.67 850.595 2490.77 849.708 2490.47C845.968 2489.77 781.199 2464.83 778.497 2463.03C781.913 2464.24 785.328 2465.41 788.744 2466.58C784.312 2464.72 779.902 2462.84 775.492 2460.91C781.848 2463.44 788.204 2465.89 794.581 2468.31C785.847 2462.79 757.203 2452.35 755.646 2452.7C754.954 2452.91 771.601 2461.56 755.408 2455.14C757.786 2456.33 760.164 2457.52 762.542 2458.69C767.623 2460.68 772.703 2462.66 777.805 2464.61C774.498 2463.08 771.211 2461.54 767.904 2459.98C769.179 2460.39 770.455 2460.8 771.752 2461.19C781.199 2465.02 790.711 2468.72 800.245 2472.31C805.088 2474.34 803.942 2474.27 807.271 2475.66C848.995 2492.46 821.929 2481.11 849.579 2491.18C853.492 2492.74 857.405 2494.27 861.339 2495.78C860.172 2494.55 872.365 2499.22 887.541 2503.57C885.682 2503.24 883.801 2502.92 881.942 2502.59C903.712 2509.58 948.332 2522.42 936.529 2518.01C941.587 2519.44 946.625 2520.82 951.705 2522.18C953.715 2522.57 955.726 2522.98 957.758 2523.37C960.093 2523.82 962.428 2524.28 964.763 2524.71C970.708 2526.14 976.674 2527.52 982.663 2528.84C982.663 2528.95 982.663 2529.06 982.684 2529.16C977.907 2528.13 973.151 2527.05 968.394 2525.94C971.897 2527.09 975.399 2528.19 978.923 2529.29C982.447 2530.01 985.992 2530.72 989.537 2531.41C974.815 2527.98 994.38 2531.69 999.201 2532.23C1011.72 2534.63 1019.63 2536.58 1023.85 2537.36C1025.81 2537.79 1049.27 2540.88 1040 2540.26C1052.04 2542.14 1064.08 2543.84 1076.18 2545.38C1080.9 2546.07 1085.61 2546.74 1090.34 2547.39C1080.03 2546.55 1109.76 2550.57 1087.79 2548.1C1071.41 2546.2 1067.43 2545.18 1059.69 2544.08C1052.71 2543.04 1048.99 2542.74 1041.4 2541.53C1011.03 2536.6 984.198 2531.11 957.477 2524.71C939.382 2520.37 921.352 2515.59 902.371 2509.99C893.097 2507.26 884.622 2504.84 878.44 2502.88C871.457 2500.63 880.342 2502.98 871.414 2500.24C862.053 2497.34 859.913 2497 857.47 2496.2C855.935 2495.68 851.2 2493.73 846.768 2492.2C828.479 2485.95 801.953 2476.07 799.402 2475.03C796.376 2474.17 746.264 2452.48 744.037 2451.03C742.783 2450.43 746.004 2450.3 734.438 2446.69C731.023 2445.11 727.628 2443.53 724.213 2441.95C724.883 2441.95 725.575 2441.95 726.245 2441.91C705.75 2433.26 712.863 2436.07 693.752 2426.45C647.856 2403.51 583.346 2363.71 538.38 2330.33C528.284 2322.94 524.198 2320.45 512.481 2311.44C501.477 2303.18 474.778 2279.16 479.534 2285.67C457.267 2264.63 451.754 2263.51 441.658 2251.81C440.102 2250.8 438.545 2249.76 436.988 2248.7C434.654 2246.24 432.622 2244.14 430.762 2242.26C423.477 2234.95 418.505 2231.25 408.149 2221.2C402.572 2215.75 409.879 2221.18 397.708 2211.06C395.675 2208.81 393.665 2206.59 391.654 2204.34C392.368 2204.62 393.103 2204.88 393.816 2205.16C381.494 2192.75 380.932 2191.73 381.386 2194.07C375.786 2187.78 370.23 2181.36 364.782 2174.94C363.766 2174.44 362.772 2173.94 361.756 2173.42C362.75 2175.13 393.146 2209.48 429.898 2243.21C468.962 2279.72 515.226 2315.03 526.489 2323.07C550.918 2342.92 604.1 2377.1 625.978 2389.98C634.669 2395.23 638.171 2398.15 651.012 2405.55C663.854 2412.92 680.565 2421.18 687.569 2424.77C710.204 2438.23 824.674 2487.35 746.674 2454.34C748.771 2455.59 750.89 2456.87 753.009 2458.12C784.312 2470.56 772.855 2466.36 798.754 2476.85C809.671 2481.28 836.175 2490.27 834.338 2490.81C813.627 2483.74 792.095 2474.97 774.562 2467.66C772.811 2466.97 751.863 2458.71 741.4 2453.71C731.952 2449.24 739 2451.16 717.835 2442.75C703.243 2434.13 694.012 2430.82 689.969 2428.94C683.008 2425.63 682.597 2424.59 675.83 2420.9C668.48 2416.88 663.162 2414.54 662.167 2414C651.855 2408.85 600.36 2378.22 598.414 2376.17C600.533 2377.33 602.63 2378.48 604.749 2379.63C591.713 2371.15 594.026 2373.57 590.524 2371.45C587.973 2369.81 585.422 2368.15 582.871 2366.48C583.973 2367 585.076 2367.5 586.2 2368.02C570.851 2357.94 582.157 2366.31 560.582 2351.65C546.919 2342.29 533.559 2331.61 532.24 2330.7C531.851 2330.42 535.764 2333.9 530.294 2329.97C521.214 2323.46 505.908 2311.7 504.633 2309.8C500.266 2306.51 500.223 2307.31 499.639 2306.88C496.915 2305.21 454.672 2270.56 447.538 2263.83C440.988 2258.08 434.286 2252.05 427.541 2245.78C413.251 2232.55 398.788 2218.3 384.888 2204.04C382.791 2201.87 384.477 2202.91 382.358 2200.75C378.943 2197.31 361.453 2179.56 358.967 2176.77C352.59 2169.99 336.938 2151.24 334.344 2148.39C333.954 2148 338.602 2154.64 332.398 2147.55C325.545 2139.65 329.868 2143.37 329.523 2142.92C316.292 2126.29 307.623 2116.07 298.781 2104.54C295.927 2100.8 291.387 2093.37 287.345 2088.11C286.869 2087.51 287.193 2089.15 286.739 2088.57C280.578 2080.63 276.298 2072.16 273.941 2068.55C268.147 2059.66 270.59 2064.98 270.266 2064.53C266.267 2058.69 261.273 2050.58 255.436 2041.57C229.493 2001.27 210.231 1967.09 188.007 1921.24C185.219 1915.49 182.711 1908.27 182.3 1907.38C181.025 1904.63 180.549 1905.82 176.917 1897.87C169.307 1881.05 162.498 1865.37 155.623 1848.42C154.239 1845.01 154.477 1843.24 153.461 1840.62C149.937 1831.91 136.49 1802.7 139.128 1801.14C130.351 1784.5 128.47 1771.96 123.8 1757.71C122.611 1754.06 121.336 1750.19 120.039 1746.12C109.143 1712.7 96.7122 1666.65 90.6158 1635.67C89.1457 1628.36 89.2755 1624.77 88.5188 1620.71C86.9407 1613.45 79.2877 1571.7 79.2661 1569.45C78.8985 1565.08 82.8764 1567.14 76.6286 1545.43C74.7262 1532.44 76.5205 1533.78 76.2827 1531.08C74.4451 1510.04 69.2783 1489.87 72.8453 1493.4C69.9485 1468.99 67.3975 1453.1 70.1214 1442.94C68.6081 1443.15 67.1813 1431.61 67.5272 1417.64C70.5105 1431.85 71.7428 1430.01 73.0183 1464.43C73.0399 1464.97 71.8941 1464.02 71.9157 1464.56C72.1103 1469.49 73.321 1479.69 73.9263 1488.06C74.5316 1496.42 73.429 1491.86 73.7101 1495.19C73.9911 1498.26 75.0072 1498.07 75.418 1502.48C76.7583 1516.85 78.4878 1529.5 79.5039 1537.65C80.1308 1542.77 80.0011 1548.65 80.5416 1552.63C82.5305 1568.05 88.4756 1600.43 92.3021 1619.82C93.0803 1623.87 91.7832 1622.38 93.5343 1631.22C93.7505 1632.26 95.48 1635.8 97.3608 1643.48C99.2416 1651.15 100.15 1657.23 101.403 1662.13C102.463 1666.24 102.874 1664.32 104.992 1672.75C106.116 1677.78 116.774 1719.92 124.557 1744.72C127.584 1754.66 129.875 1761.86 130.243 1763.09C132.08 1769.28 131.972 1772.54 133.356 1776.22C133.615 1776.86 135.02 1777.6 135.863 1779.85C149.202 1816.97 180.83 1898.39 201.8 1938.36C244.194 2022.44 292.836 2095.27 355.4 2166.79C356.632 2167.98 357.843 2169.14 359.075 2170.33C352.741 2163.13 346.472 2155.83 340.332 2148.47C340.591 2148.17 340.851 2147.87 341.11 2147.57C332.873 2137.54 333.284 2139.44 333.09 2140.09C330.236 2136.22 327.404 2132.33 324.615 2128.41C320.875 2126.1 302.024 2100.16 292.533 2086.67C286.285 2077.95 278.589 2067.73 275.455 2063.01C268.861 2053.03 269.834 2052.75 269.315 2051.97C268.45 2050.63 258.657 2037.09 252.366 2026.82C243.092 2011.6 243.308 2009.25 230.142 1988.73C215.441 1961.17 199.379 1930.58 185.262 1900.01C189.218 1905.22 175.512 1878.37 170.345 1865.76C154.845 1828.82 139.647 1786.94 126.546 1744.07C112.515 1698.32 101.49 1651.41 94.0099 1608.8C92.1507 1598.21 91.8264 1590.01 90.832 1584.13C90.2915 1580.93 88.8647 1579.74 88.3242 1575.25C88.2378 1574.47 89.2538 1573.73 88.2161 1565.41C85.3409 1544.76 78.1635 1493.24 79.8714 1479.93C74.6829 1408.93 76.1962 1337.5 84.3248 1266.83C85.0815 1265.12 85.8381 1263.41 86.5948 1261.7C85.2112 1247.95 95.0476 1195.33 100.582 1169.93C101.382 1165.95 102.225 1161.89 103.111 1157.74C112.061 1114.76 124.816 1064.37 136.101 1029.6C138.76 1021.3 141.873 1014.79 144.533 1007.01C145.678 1003.68 146.067 999.141 147.3 995.661C160.941 956.53 184.376 905.725 203.94 869.211C243.027 795.144 289.853 730.46 345.801 667.57C352.676 659.852 359.745 652.156 366.966 644.524C495.64 508.843 658.103 405.742 833.646 346.549C960.136 304.046 1093.85 284.286 1226.37 288.696C1230.61 288.848 1230.37 290.88 1233.63 291.009C1253 291.615 1296.35 293.02 1318.12 295.744C1335.5 297.646 1362.46 304.846 1368.84 302.619C1308.24 288.048 1242.13 283.573 1177.16 283.27C1172.54 283.248 1171.91 281.346 1171.35 281.324C1160.8 280.913 1167.52 283.335 1152.28 283.962C1147.24 283.897 1099.62 280.935 1105.74 286.642C1094.26 284.394 1014.79 292.977 999.849 297.128C995.288 298.165 998.855 299.29 997.969 299.527C994.077 300.587 991.851 298.598 988.283 299.181C978.793 300.695 955.25 307.483 950.754 308.521C940.312 310.661 908.706 316.347 895.237 320.606C882.871 324.411 885.876 326.076 875.218 329.383C866.83 332.042 875.413 327.308 856.432 332.475C851.806 333.75 841.688 337.231 831.722 340.906C821.453 344.668 811.336 348.667 807.379 350.094C799.597 352.905 790.452 354.807 779.837 359.066C764.488 365.076 731.801 379.842 716.841 387.387C715.933 387.841 714.484 390.457 712.258 391.452C707.61 393.549 708.042 390.933 704.453 392.381C700.67 393.419 641.241 424.269 631.577 430.323C624.746 434.171 620.703 437.976 616.963 440.159C614.023 441.867 612.812 440.548 609.807 442.3C608.878 442.862 601.808 448.828 594.047 453.585C586.632 457.952 558.333 474.577 555.22 476.804C553.167 478.187 556.107 477.668 550.032 481.733C544.519 485.451 540.001 486.662 536.866 488.802C529.602 493.818 522.382 500.628 514.859 506.162C493.283 522.16 493.326 520.02 491.986 520.906C488.333 523.501 488.03 525.987 486.884 526.917C482.063 530.83 470.432 540.58 466.217 544.147C460.963 548.579 457.656 549.184 452.057 553.897C447.884 557.421 440.577 565.788 431.346 574.089C410.506 592.811 386.747 616.16 367.766 636.028C362.102 641.951 360.199 641.908 358.448 643.724C349.325 653.237 345.628 659.83 343.099 662.598C342.667 663.095 342.213 663.592 341.759 664.089C323.296 684.173 292.295 718.569 277.789 738.156C271.498 746.155 246.745 783.081 233.558 804.332C232.023 806.753 232.542 803.921 231.007 806.732C227.332 813.434 229.537 813.931 227.483 817.195C226.488 818.752 223.246 821.8 220.392 826.427C205.583 850.424 197.541 868.13 191.661 879.566C146.867 966.691 116.536 1062.85 96.2583 1156.35C90.9401 1180.7 86.465 1204.89 82.8331 1228.76C80.8875 1241.6 79.72 1257.64 76.607 1276.99C76.0017 1277.53 75.3963 1278.09 74.791 1278.63C75.245 1279.37 75.7206 1280.1 76.1746 1280.84C74.2289 1302.95 74.2289 1311.32 72.1536 1333.91C71.9806 1335.86 69.2567 1341.69 72.0671 1345.5C68.954 1367.85 71.6131 1355.62 71.3104 1372.26C71.0942 1388.91 70.4241 1405.1 70.5754 1421.27C69.6458 1430.18 66.7705 1393 66.9435 1390.55C66.9867 1386.64 68.4784 1382.58 68.6297 1378.82C69.0405 1367.68 68.2838 1356.87 69.689 1354.41C68.8892 1339.97 68.8459 1357.91 67.6785 1356.07C68.5432 1346.47 69.5593 1336.87 70.6835 1327.32C66.3165 1322.13 76.8448 1269.62 73.3426 1273.01C74.4667 1268.88 75.6341 1264.75 76.8232 1260.62C74.8775 1241.73 79.2661 1231.22 84.6058 1207.07C83.7627 1208.74 82.9196 1210.4 82.0765 1212.09C81.8819 1211.55 84.7355 1189.89 85.7516 1197.97C86.638 1175.4 91.6751 1177.33 92.021 1156.94C92.1075 1156.44 92.194 1155.99 92.2588 1155.56C94.1396 1145.68 94.8531 1151.73 99.3713 1131.73C102.203 1119.39 104.754 1103.86 108.278 1090.11C109.1 1086.96 110.743 1085.94 111.499 1083.13C112.256 1080.32 111.348 1078.61 112.256 1075.22C114.094 1068.21 117.574 1059.42 118.763 1055.05C119.822 1051.16 120.341 1045.23 123.022 1035.85C132.664 1003.1 131.345 1013.5 133.529 1008.55C135.972 1003.27 135.15 998.622 139.279 987.835C139.69 986.754 140.014 990.04 141.246 986.494C142.241 983.64 141.29 981.673 144.533 972.161C145.419 968.204 168.81 910.741 173.242 902.396C179.187 889.187 194.904 861.017 202.189 847.981C204.956 842.922 206.794 836.934 209.864 831.594C219.895 813.931 237.082 786.345 251.761 765.202C264.732 745.939 291.798 715.326 297.657 703.847C317.827 678.185 325.134 673.948 326.669 672.067C330.647 667.57 331.684 664.392 335.987 659.074C336.419 658.533 336.873 657.993 337.392 657.409C407.63 574.63 520.89 485.257 609.764 434.019C679.03 392.878 752.533 358.612 828.847 332.648C978.036 281.821 1138.01 262.105 1294.73 276.071C1295.44 275.163 1296.15 274.255 1296.87 273.347C1268.87 270.277 1235.77 267.077 1207.86 266.558C1170.53 265.499 1115.75 272.287 1087.9 268.936C1098.93 267.272 1117.15 268.331 1116.59 265.131C1096.74 266.342 1076.92 268.05 1057.14 270.277C1057.92 271.66 1058.7 273.066 1059.47 274.449C1038.98 277.368 1017.99 280.178 997.58 284.005C994.034 284.675 996.78 285.518 993.688 286.08C990.229 286.707 992.326 284.978 991.678 285.086C982.944 286.664 980.566 288.523 979.506 288.718C976.761 289.193 978.642 287.507 970.686 288.718C955.942 291.009 946.3 296.695 948.462 290.426C943.771 291.463 939.058 292.544 934.367 293.647C933.502 295.42 932.659 297.193 931.816 298.965C901.528 299.938 891.303 314.055 873.229 310.445C868.43 313.212 863.631 315.979 858.875 318.79C855.524 318.249 852.173 317.731 848.822 317.233C848.649 318.639 848.476 320.022 848.303 321.427C841.299 323.395 834.273 325.622 827.247 328.021C806.212 335.177 785.372 343.846 766.066 351.564C748.144 358.785 743.691 360.19 728.061 367.217C693.493 383.28 726.829 365.098 696.973 376.297C699.114 376.924 701.254 377.55 703.416 378.199C698.919 380.945 694.444 383.734 689.969 386.522C686.142 387.041 682.338 387.582 678.511 388.144C666.924 401.05 655.358 401.504 653.39 402.564C651.834 403.45 648.202 409.503 629.913 416.14C639.36 416.659 617.201 423.383 615.644 424.334C614.109 425.156 595.798 437.349 588.232 442.062C582.244 445.715 569.013 452.828 560.301 458.665C552.626 463.81 554.356 464.697 553.794 465.086C544.454 471.55 549.621 466.491 542.79 471.053C535.98 475.658 531.591 480.479 530.056 481.408C529.3 481.862 530.813 478.879 527.397 481.127C518.166 487.116 502.99 499.958 493.002 507.567C489.457 510.27 484.225 512.67 480.29 515.718C474.28 520.388 472.573 523.955 469.114 526.679C467.903 527.608 458.585 531.759 449.506 539.931C447.776 541.509 446.198 550.049 434.2 550.114C434.394 551.411 434.589 552.686 434.805 553.962C405.987 582.931 391.957 584.877 384.39 603.102C362.815 623.489 375.051 606.972 372.414 608.961C370.706 610.258 364.545 617.781 363.788 618.516C362.404 619.814 361.95 618.927 360.524 620.419C334.646 648.199 347.596 637.174 340.31 646.772C337.759 650.21 335.165 653.431 332.722 656.306C320.27 671.094 311.363 676.455 330.863 654.685C333.003 652.329 335.511 649.648 338.408 646.643C338.019 646.297 337.608 645.929 337.219 645.583C335.381 647.81 332.809 650.815 330.041 653.972C321.048 664.241 310.152 676.282 313.719 668.91C314.93 666.446 320.616 659.247 327.166 651.464C341.024 634.925 358.362 616.463 337.5 636.114C332.765 640.654 330.431 644.459 325.048 649.605C322.561 651.983 319.448 654.663 315.189 657.841C307.99 666.013 310.541 670.316 299.711 680.477C302.543 679.633 305.353 678.834 308.185 678.012C296.987 694.767 279.476 712.494 271.044 725.444C268.104 729.876 263.37 749.528 259.673 741.529C254.744 748.814 230.445 782.41 227.094 789.437C226.294 791.123 228.153 795.101 213.301 817.325C211.939 818.666 210.556 820.028 209.194 821.39C220.306 799.511 197.26 836.199 199.919 824.2C203.313 821.498 214.101 805.218 216.501 803.013C220.543 799.208 213.842 813.736 224.024 796.225C225.321 781.978 208.696 814.752 206.491 806.948C195.358 831.486 192.007 832.653 188.959 837.928C176.247 860.585 169.545 875.524 158.714 897.532C157.158 903.347 177.695 864.066 179.987 859.093C174.669 878.961 190.429 848.176 195.423 834.231C197.152 833.777 198.903 833.345 200.633 832.912C190.753 849.105 181.868 865.428 174.604 882.788C173.631 883.674 172.68 884.582 171.707 885.468C172.874 881.361 174.085 877.232 175.317 873.124C167.383 886.722 174.755 879.783 162.973 897.359C164.011 898.548 165.027 899.715 166.065 900.904C157.287 918.848 149.094 937.095 141.419 955.579C140.079 966.215 126.308 1002.08 125.292 994.342C120.06 1009 127.994 991.402 124.168 1005.48C122.503 1011.64 118.828 1023.42 117.034 1026.1C114.202 1023.83 119.455 1005.99 119.066 999.92C116.515 1002.75 94.7233 1086.68 93.5127 1078.44C91.3292 1085.03 94.0099 1082.42 91.4589 1094.68C88 1111.3 82.6169 1132.16 78.1851 1152.61C73.4507 1174.26 69.9701 1195.44 70.0782 1210.12C76.7799 1182.6 77.3636 1171.34 80.4767 1153.09C81.0172 1149.98 81.6441 1146.65 82.4008 1143.04C84.822 1126.97 109.791 1031.44 107.608 1053.73C108.17 1050.14 108.732 1046.57 109.337 1042.94C111.37 1039.72 113.445 1036.52 115.499 1033.34C112.645 1043.22 109.9 1053.1 107.284 1063.09C105.619 1065.19 103.976 1067.26 102.333 1069.38C102.744 1070.66 103.155 1071.95 103.587 1073.23C102.592 1077.45 101.62 1081.7 100.69 1085.92C100.15 1084.51 99.5875 1083.13 99.0471 1081.73C97.2095 1088.13 95.4151 1094.61 93.6856 1101.08C95.2422 1099.6 96.8203 1098.13 98.3985 1096.66C91.1779 1127.28 93.0371 1116.73 87.0271 1133.33C84.0005 1146.02 90.8536 1124.94 85.5571 1152.05C85.4274 1152.74 85.2976 1153.39 85.1679 1154.04C79.8714 1182.67 80.0443 1163.14 73.7317 1203.29C74.1857 1203.98 74.6397 1204.65 75.0937 1205.32C73.0615 1214.23 71.1375 1223.18 69.3215 1232.13C70.1646 1231.03 71.0294 1229.92 71.8725 1228.82C68.8459 1247.41 67.2677 1273.31 64.0682 1279.28C67.2894 1260.43 62.7711 1260.1 61.3443 1264.95C56.1126 1274.83 51.724 1427.07 56.2855 1456.43C58.6203 1494 60.3498 1522.56 67.1597 1556.35C64.6303 1533.15 56.3504 1451.65 57.6907 1436.04C57.7556 1434.51 61.6902 1434.79 56.9557 1425.08C56.7827 1393.26 55.8531 1355.19 58.6419 1315.47C59.7445 1316.77 60.8687 1318.04 61.9712 1319.32C57.8421 1343.53 62.8792 1366.3 58.4041 1362.99C58.2744 1367.85 58.188 1372.7 58.1231 1377.56C58.9014 1377.56 59.6796 1377.56 60.4579 1377.58C60.3498 1384.89 60.3066 1392.2 60.3498 1399.5C59.5715 1399.5 58.8149 1399.5 58.0366 1399.5C58.0799 1405.58 58.1447 1411.63 58.2744 1417.71C59.0527 1418.31 59.831 1418.94 60.6092 1419.55C58.9878 1437.77 67.4407 1499.19 61.1281 1472.38C61.7118 1480.9 62.4036 1489.4 63.1818 1497.89C63.7223 1497.81 64.2412 1497.74 64.7816 1497.65C65.1924 1501.29 65.6031 1504.94 66.0355 1508.57C65.4302 1507.43 64.8249 1506.28 64.2412 1505.11C66.7273 1521.74 66.1868 1537.87 69.3215 1548.57C68.6946 1541.3 68.1325 1534.04 67.6569 1526.78C68.5 1540.72 73.5804 1565.97 73.9911 1568.22C75.0721 1575.14 74.6181 1578.96 75.8287 1586.47C76.9313 1593.23 77.5798 1592.15 77.7744 1593.43C83.6546 1629.92 77.061 1616.95 85.3841 1632.84C85.1031 1634.78 84.822 1636.73 84.541 1638.68C85.6219 1640.95 86.7028 1643.22 87.7838 1645.46C90.1186 1656.14 92.5831 1666.78 95.2206 1677.37C95.1341 1673.63 95.0692 1669.89 95.026 1666.15C99.2416 1681.94 99.6524 1689.72 100.02 1691.27C101.079 1695.64 102.614 1697.33 102.982 1698.67C118.979 1755.16 111.845 1731.77 113.899 1748.11C114.223 1750.32 114.721 1753.24 115.542 1757.15C120.666 1768 118.288 1756.09 119.217 1754.01C123.454 1769.26 125.422 1773.82 130.87 1789.6C132.296 1793.71 133.14 1798.35 134.069 1800.95C134.869 1803.2 138.22 1809.88 140.23 1815.2C143.581 1824.08 147.667 1836.06 152.596 1848.1C156.617 1858.15 170.064 1888.4 179.987 1909.24C184.181 1918.15 182.646 1916.35 183.727 1918.64C184.181 1919.59 188.224 1926.17 191.034 1931.83C213.885 1977.99 240.043 2024.01 269.272 2066.78C289.853 2096.93 312.725 2126.14 336.311 2154.1C341.326 2160.02 338.321 2157.19 340.505 2159.78C341.261 2160.67 342.775 2161.23 350.449 2170.48C353.238 2173.81 349.498 2170.44 352.309 2173.66C353.692 2175.22 354.773 2175.46 363.075 2184.32C378.208 2200.4 385.99 2209.44 387.352 2210.85C389.99 2213.46 389.622 2212.29 393.124 2215.77C404.82 2227.43 415.413 2237.5 426.093 2247.32C431.022 2251.84 435.972 2256.29 441.053 2260.81C448.209 2267.9 501.779 2311.89 505.065 2313.93C511.702 2319.27 504.763 2315.29 513.497 2321.86C516.091 2323.5 518.707 2325.12 521.322 2326.75C517.539 2323.7 513.778 2320.61 510.016 2317.49C520.436 2325.9 532.975 2334.48 541.017 2340.26C542.487 2341.34 556.02 2351.41 563.176 2356.17C560.041 2354.27 556.928 2352.34 553.815 2350.42C554.788 2351.28 555.761 2352.15 556.755 2353.01C571.067 2362.55 586.286 2372.53 601.268 2381.87C606.673 2385.22 604.662 2384.4 610.153 2387.78C642.365 2407.06 634.798 2401.14 665.259 2420.77C654.493 2415.02 615.709 2393.12 610.326 2389.51C606.478 2387.13 592.902 2375.86 597.052 2381.33C566.613 2361.96 593.658 2377.81 565.381 2359.54C565.77 2360.17 566.159 2360.8 566.549 2361.42C556.669 2355.07 549.427 2350.25 543.892 2345.66C540.974 2345.66 509.022 2321.56 491.856 2307.91C469.287 2290.38 444.706 2269.97 423.239 2250.43C420.904 2248.31 418.591 2246.19 416.343 2244.1C408.43 2236.75 404.517 2231.95 403.545 2230.99C402.118 2229.63 397.708 2226.2 394.876 2223.43C384.131 2213.22 354.168 2179.74 345.564 2172.41C369.906 2199.91 395.697 2226.09 422.807 2250.91C460.618 2285.56 500.72 2317.73 542.747 2347.15C533.775 2340.73 607.97 2389.85 612.293 2391.47C615.861 2393.66 612.618 2392.25 613.655 2392.9C621.481 2397.83 628.659 2401.2 631.21 2402.67C633.155 2403.8 636.917 2406.33 643.856 2410.22C645.132 2410.91 645.651 2410.82 647.013 2411.6C656.093 2416.64 665.108 2421.5 674.36 2426.32C674.922 2426.63 677.041 2428.25 679.376 2429.46C681.732 2430.67 684.262 2431.45 684.845 2431.75C692.261 2435.55 704.951 2442.1 712.106 2445.5C714.592 2446.69 712.993 2445.59 715.782 2446.9C724.342 2450.95 721.251 2450.19 731.974 2454.92C735.562 2456.48 735.519 2455.96 742.372 2459.08C747.215 2461.26 746.372 2461.78 747.128 2462.15C748.166 2462.66 765.31 2469.3 770.693 2472.03C758.024 2468.31 783.966 2477.52 782.972 2476.46C789.674 2479.29 796.419 2482.03 803.185 2484.74C805.563 2485.47 807.941 2486.23 810.319 2486.94C837.689 2497.62 854.854 2502.92 882.461 2511.42C883.779 2511.89 907.127 2518.81 906.003 2518.61C891.865 2515.05 877.899 2510.92 869.144 2507.61C854.184 2504.04 854.14 2503.26 830.619 2495.35C822.75 2492.67 822.102 2492.76 821.194 2492.43C790.603 2482.01 742.74 2462.17 723.521 2451.88C717.857 2449.61 737.746 2458.82 729.92 2455.47C725.078 2454.82 625.567 2403.49 657.887 2418.89C654.601 2417.13 651.337 2415.4 648.072 2413.63C644.202 2412.96 628.27 2403.62 630.734 2403.54C629.091 2402.91 627.448 2402.26 625.805 2401.59C622.714 2400.06 619.103 2398.11 614.153 2395.23C594.026 2385.94 487.446 2310.25 482.906 2304.69C482.56 2304.89 482.215 2305.06 481.869 2305.26C526.943 2341.4 573.661 2372.62 627.816 2404.81C626.367 2403.64 624.919 2402.5 623.492 2401.33C645.024 2414.3 666.988 2426.54 689.342 2438.06C665.237 2426.78 627.794 2406.84 604.143 2391.88C599.928 2389.27 603.257 2390.8 602.306 2390.15C599.819 2388.49 596.706 2387.47 587.562 2381.85C578.374 2376.3 556.172 2361.05 554.161 2359.63C550.205 2357.01 539.115 2350.46 532.499 2345.77C523.809 2339.59 529.97 2343.28 528.219 2342.03C521.041 2336.86 514.491 2332.39 508.957 2328.24C500.698 2322.1 484.441 2308.22 477.934 2304.87C483.641 2309.49 489.392 2314.08 495.186 2318.59C466.282 2297 445.095 2277.22 419.153 2254.86C416.408 2252.48 413.597 2250.08 410.744 2247.64C402.831 2242.99 426.979 2264.83 406.16 2246.8C409.836 2250.17 413.532 2253.54 417.272 2256.87C417.272 2256.87 417.272 2256.87 417.294 2256.89C418.418 2257.37 419.564 2257.85 420.688 2258.34C426.893 2264.31 433.14 2270.19 439.475 2276.01C437.853 2274.15 436.232 2272.27 434.61 2270.41C457.699 2290.27 482.02 2309.04 489.392 2316.91C490.149 2316.95 490.905 2317 491.662 2317.04C513.648 2334.85 549.621 2357.47 541.817 2354.79C542.984 2355.46 544.152 2356.1 545.341 2356.77C559.241 2366.72 553.729 2361.85 559.112 2365.34C560.603 2366.42 588.318 2384.71 575.563 2377.31C602.76 2394.98 595.409 2387.86 603.041 2392.47C620.227 2404.12 653.628 2420.81 639.187 2414.52C641.868 2416.05 644.548 2417.59 647.229 2419.12C656.698 2422.95 664.913 2428.77 674.533 2434.11C677.841 2435.81 681.17 2437.52 684.478 2439.21C686.878 2439.99 689.277 2440.76 691.677 2441.52C722.527 2458.25 714.506 2449.17 727.434 2459.33C725.056 2458.53 722.699 2457.71 720.321 2456.89C714.874 2454.54 709.469 2452.16 704.064 2449.74C725.618 2460.03 747.496 2469.65 769.633 2478.6C797.478 2490.64 814.06 2495.61 845.817 2506.75C848.844 2507.61 851.87 2508.5 854.919 2509.34C851.633 2509.06 839.959 2505.36 861.642 2512.41C863.35 2513.47 848.606 2509.02 842.056 2506.46C840.477 2505.84 854.292 2509.88 838.899 2504.89C828.479 2501.41 847.158 2508.48 816.048 2497.58C817.151 2498.12 818.275 2498.64 819.378 2499.16C816.005 2497.99 812.633 2496.8 809.26 2495.61C806.363 2494.25 803.488 2492.89 800.613 2491.5C792.787 2489.08 788.225 2488.17 770.887 2481.24C775.687 2482.9 769.525 2479.81 760.964 2476.33C760.878 2476.57 760.77 2476.78 760.683 2477C739.929 2468.63 747.345 2470.94 730.05 2464.07C728.428 2463.14 726.807 2462.21 725.186 2461.26C715.522 2458.04 681.538 2442.49 688.283 2444.24C678.273 2440.83 658.903 2430.34 652.201 2425.54C651.51 2425.5 650.839 2425.44 650.148 2425.39C646.278 2423.38 642.408 2421.37 638.56 2419.34C636.506 2418.02 634.452 2416.7 632.42 2415.38C629.632 2414.04 626.864 2412.68 624.076 2411.32C622.584 2410.15 621.114 2408.98 619.644 2407.82C615.169 2405.65 610.694 2403.47 606.219 2401.24C603.711 2399.51 601.225 2397.76 598.739 2396.01C598.112 2396.44 572.342 2380.86 565.554 2375.89C563.349 2374.67 561.144 2373.46 558.939 2372.25C558.074 2371.35 557.209 2370.42 556.366 2369.49C554.68 2368.66 552.972 2367.84 551.286 2367.02C547.827 2364.45 544.411 2361.85 540.995 2359.24C525.646 2350.61 525.992 2349.1 522.706 2346.83C516.588 2342.61 495.596 2328.47 492.289 2325.84C488.938 2323.26 487.684 2321.56 485.003 2319.46C441.355 2284.09 458.672 2299.35 449.7 2292.54C444.922 2288.76 441.982 2285.56 437.832 2282.15C434.221 2279.16 423.261 2270.06 413.23 2261.33C403.458 2252.85 394.638 2244.81 393.708 2243.86C390.963 2241.11 399.545 2245.39 389.882 2237.2C388.476 2238.06 370.187 2218 377.732 2228.38C369.906 2220.44 362.167 2212.38 354.579 2204.19C354.103 2206.37 345.391 2195.65 335.208 2184.6C320.529 2169.21 288.988 2133.02 291.841 2133C288.274 2129.32 284.751 2125.62 281.227 2121.88C260.3 2093.95 239.978 2066.34 221.278 2037.14C166.497 1952.09 121.033 1851.58 89.7727 1755.89C89.2106 1754.16 88.6269 1752.44 88.0648 1750.71C86.5515 1746.01 87.6108 1746.43 86.5299 1743.05C80.6929 1725.37 66.6192 1678.97 60.9551 1653.44C59.0743 1645.29 59.0743 1641.12 58.5122 1638.52C56.6747 1629.7 55.9829 1632.02 55.1181 1627.95C53.6481 1621.55 48.0488 1587.4 46.3194 1575.59C45.3898 1569.78 43.2928 1563.01 42.5361 1556.13C42.4713 1555.55 43.6603 1556.48 43.5954 1555.98C41.8443 1543.51 42.1037 1551.12 41.52 1546.9C37.4774 1516.77 34.04 1484.42 32.2241 1451.48C31.7484 1443.3 31.8998 1430.74 31.7268 1423.72C31.662 1421.04 30.9918 1425.88 30.7324 1416.61C30.6459 1413.43 31.7052 1412.32 31.6836 1408.74C31.6404 1393.32 28.0733 1388.11 30.9269 1374.86C30.6243 1349.24 31.7052 1304.58 33.7806 1281.23C34.2346 1275.71 35.1426 1273.1 35.6182 1267.84C35.9641 1264.13 35.5533 1257.45 36.1586 1251.63C36.764 1245.81 38.7961 1236.78 40.2229 1225.62C41.693 1213.88 43.2711 1199.23 43.7035 1196.61C44.2007 1193.43 45.714 1192.16 46.2113 1188.98C47.4651 1180.74 50.0161 1160.59 52.3077 1147.21C52.6968 1144.94 53.0644 1142.89 53.3886 1141.11C55.8748 1127.95 58.2312 1120.16 59.204 1115.69C60.0904 1111.56 60.0471 1106.44 60.4795 1104.53C61.1281 1101.57 62.5981 1101.18 63.4413 1097.44C64.8249 1091.37 65.495 1084.8 67.7217 1075.67C106.224 910.374 185.932 755.278 295.279 630.645C296.468 629.261 297.614 627.921 298.694 626.624C308.747 614.82 315.276 605.912 332.419 588.185C340.181 580.251 338.192 584.834 343.921 578.391C346.493 575.516 344.85 575.278 348.201 571.733C362.967 556.081 381.991 539.715 388.801 533.402C391.503 530.873 393.535 526.852 399.134 521.728C440.75 483.505 493.737 442.537 544.325 408.768C570.98 390.716 612.337 364.709 645.024 347.284C696.627 319.439 752.771 294.447 808.677 274.622C850.249 259.835 891.562 247.771 930.389 238.281C1067.56 204.728 1210.63 193.637 1351.17 211.408C1285.95 198.718 1194.94 197.118 1121.35 202.955C1016.52 210.543 909.549 233.351 807.25 270.45C701.665 308.672 601.679 362.223 511.854 425.891C450.003 469.237 377.581 531.608 321.329 592.336C318.778 595.081 314.368 601.632 308.92 607.62C308.099 608.507 300.078 616.03 293.852 622.386C291.236 625.067 288.901 627.532 287.539 629.153C294.717 626.342 274.179 645.778 268.926 652.674C262.116 661.365 249.447 680.412 233.644 700.69C219.376 719.153 222.035 713.186 221.214 714.159C216.047 720.666 216.263 724.298 212.912 729.703C197.347 750.457 131.842 866.681 119.758 902.029C116.061 910.871 114.785 910.633 113.964 912.622C111.802 917.94 110.008 925.982 106.765 934.544C100.885 949.936 93.5343 967.491 90.7023 976.095C83.6979 996.655 73.3858 1036.46 66.6624 1063.63C64.7384 1071.28 63.6358 1070.51 62.7927 1073.96C59.0959 1088.71 52.1131 1126.59 48.5028 1146.37C48.3731 1147.1 48.2434 1147.79 48.1137 1148.46C42.1037 1179.6 36.3748 1211.74 33.1969 1243.8C32.4402 1245.77 31.6836 1247.74 30.9486 1249.71C31.1647 1252.97 31.3809 1256.26 31.6187 1259.52C25.8466 1313.72 25.3926 1369.3 27.468 1423.31C27.5977 1429.53 28.4624 1460.38 28.9597 1465.51C29.2839 1469.77 30.7972 1473.9 31.1864 1480.21C31.7484 1489.07 28.7002 1480.94 30.7756 1495.34C31.3593 1499.21 31.8998 1495.34 33.0239 1503.12C33.132 1505.72 40.0932 1555.44 40.6985 1558.08C41.2822 1562.53 39.9635 1566.79 40.1148 1567.96C40.8931 1573.95 42.3415 1573.45 43.1631 1577.43C45.5843 1589.15 47.5732 1604.63 47.984 1606.53C52.6752 1629.55 63.9169 1671.93 70.0566 1695.71C70.8781 1699.01 69.7539 1698.89 69.8836 1699.47C70.7267 1703.23 72.5427 1705.22 73.602 1708.72C77.515 1721.87 82.8115 1740.18 88 1756.39C90.2699 1763.5 92.4534 1770.21 94.399 1775.91C95.1341 1778.08 97.2743 1782.42 98.5931 1786.27C106.181 1807.95 102.852 1801.23 103.241 1802.48C104.236 1805.42 107.068 1810.18 110.094 1817.85C117.79 1837.64 133.507 1875.21 143.149 1895.86C150.305 1911.34 149.332 1911.51 149.786 1912.55C150.802 1914.71 154.412 1920.37 159.514 1930.38C169.437 1949.6 167.686 1947.72 171.837 1955.59C172.204 1956.24 172.248 1954.77 176.982 1963.42C185.975 1980.19 206.924 2017.55 218.079 2034.63C222.316 2041.24 223.894 2042.41 228.304 2049.14C235.222 2059.81 251.047 2083.79 252.431 2085.61C252.798 2086.1 254.268 2086.84 256.452 2089.87C258.851 2093.19 260.927 2096.68 262.743 2099.14C273.033 2113.24 292.771 2135.91 285.486 2131.01C289.485 2134.98 293.528 2138.92 297.57 2142.83C320.637 2171.11 344.699 2197.16 370.382 2222.56C376.154 2228.25 380.694 2233.31 385.666 2238.02C389.557 2241.76 404.431 2255.01 412.559 2261.95C414.721 2263.81 416.408 2265.24 417.207 2265.95C423.78 2272.11 463.082 2304.78 468.206 2308.54C477.869 2316.3 486.927 2324.28 491.078 2327.18C494.407 2329.49 491.705 2326.85 497.996 2331.35C508.849 2339.15 527.073 2352.73 530.467 2355C531.916 2355.97 529.386 2353.88 542.941 2363C550.248 2367.89 553.988 2370.78 556.669 2372.51C557.512 2373.05 556.561 2371.78 571.218 2381.18C581.357 2387.65 585.508 2390.67 586.567 2391.34C588.189 2392.32 592.361 2394.28 598.868 2398.17C614.066 2407.36 642.192 2423.6 657.217 2431.32C660.114 2432.81 659.379 2431.86 670.945 2437.76C679.246 2441.97 677.603 2441.63 680.716 2443.19C685.667 2445.63 693.298 2448.76 704.345 2453.93C717.662 2461.78 823.593 2503.61 829.582 2504.32C833.322 2505.64 837.689 2507.07 839.483 2507.85C837.818 2507.5 836.154 2507.18 834.511 2506.83C818.167 2500.74 824.609 2503.63 820.199 2502.23C813.8 2500.19 790.02 2491.59 784.269 2489.54C782.215 2488.82 786.712 2491.01 775.687 2487.05C763.861 2482.75 758.975 2479.92 753.917 2479.03C737.854 2471.2 721.597 2465.54 740.492 2473.97C750.587 2479.87 857.253 2518.18 879.953 2522.96C897.723 2528.04 931.167 2536.1 953.694 2540.77C953.996 2540.84 954.321 2540.93 954.623 2540.99C967.832 2543.93 1000.61 2549.83 999.158 2549.9C1010.98 2551.93 998.531 2549.46 1001.02 2549.81C1006.21 2550.74 1043.19 2556.47 1050.26 2557.18C1084.94 2561.57 1128.93 2564.6 1162.77 2565.85C1161.19 2565.87 1159.61 2565.92 1158.03 2565.94C1150.4 2565.98 1115.12 2563.82 1111.1 2563.8C1149.97 2566.59 1188.95 2567.45 1227.82 2566.41L1227.88 2566.37ZM1125.19 230.368C1111.06 232.4 1084.75 231.86 1082.35 232.141C1081.48 232.227 1076.27 234.324 1067.6 235.297C1055.41 236.659 1049.92 236.119 1048.9 236.248C1045.81 236.681 1048.02 237.783 1045.05 238.194C1023.02 241.242 1006.12 244.485 986.1 248.29C963.509 252.657 951.532 252.744 935.815 259.294C933.718 258.667 931.621 258.04 929.524 257.413C918.239 264.461 846.379 283.918 817.972 294.274C817.173 294.555 816.437 294.771 815.789 294.966C809.109 296.955 809.649 295.139 806.904 296.133C805.001 296.868 806.493 298.684 783.015 307.094C771.233 311.396 767.536 311.029 761.721 313.428C758.565 314.747 759.732 316.131 755.192 318.012C728.969 328.908 707.631 338.009 682.532 350.029C675.485 353.424 674.793 352.213 673.236 353.034C667.507 356.018 658.579 363.195 644.202 370.935C620.336 383.453 574.353 411.082 555.458 422.475C552.669 424.118 549.535 424.226 547.567 425.566C544.584 427.599 544.346 429.804 543.827 430.15C533.861 436.916 538.985 431.555 532.521 436.419C529.04 439.057 526.381 443.208 518.253 449.218C507.551 457.195 508.395 453.866 504.006 457.325C503.552 457.692 504.309 459.076 499.942 462.362C483.274 474.793 459.796 493.688 444.728 506.292C440.383 509.902 436.513 511.826 430.525 516.928C417.791 526.549 353.022 589.417 348.115 594.995C347.531 595.514 351.53 588.185 342.732 597.524C340.829 600.854 338.927 604.183 337.067 607.512C331.793 611.079 326.539 614.733 321.329 618.408C323.426 620.138 317.07 629.391 310.563 636.806C305.245 642.859 299.797 647.659 298.197 646.102C295.495 649.021 292.749 652.004 290.047 654.966C287.41 663.57 282.848 667.073 274.482 680.931C272.104 682.271 269.747 683.611 267.391 684.973C267.542 685.903 267.715 686.833 267.866 687.741C259.673 692.216 254.182 705.879 253.209 707.219C249.383 712.559 245.707 716.04 243.935 718.569C237.233 727.974 224.197 749.29 216.436 760.337C216.068 760.856 215.096 759.473 212.869 762.607C208.869 768.25 210.383 770.023 203.292 776.487C202.881 778.432 202.47 780.357 202.06 782.302C200.741 783.794 199.422 785.329 198.103 786.842C192.245 796.938 186.537 807.143 181.046 817.455C184.008 806.905 176.701 816.893 173.026 828.07C171.772 831.853 174.777 829.518 174.366 830.794C173.501 832.372 149.462 878.875 147.429 881.793C146.824 884.258 146.24 886.701 145.635 889.165C144.251 889.922 142.868 890.657 141.484 891.414C141.225 892.797 140.987 894.202 140.728 895.586C133.507 907.368 123.844 941.699 121.444 947.558C120.104 950.715 117.38 946.391 112.148 961.978C112.969 962.886 113.791 963.794 114.634 964.702C113.51 968.291 112.386 971.901 111.326 975.49C108.927 982.084 103.911 991.25 102.614 991.142C102.657 993.477 102.679 995.812 102.744 998.147C98.4633 1002.99 90.1186 1033.45 88.3026 1046.1C86.5947 1049.45 84.9301 1052.84 83.2439 1056.24C82.8115 1061.27 82.4007 1066.29 82.0116 1071.35C79.3958 1082.61 81.0172 1070.42 80.2821 1072.78C78.6824 1077.75 74.8775 1104.04 72.3481 1101.64C71.5266 1105.14 70.7051 1108.69 69.9052 1112.21C70.3376 1114.2 70.7916 1116.21 71.224 1118.2C67.4407 1123 65.9923 1132.01 61.9063 1149.09C61.4091 1151.14 60.8903 1153.33 60.3282 1155.64C60.6308 1157.59 60.9551 1159.53 61.2578 1161.48C59.0311 1167.96 56.8908 1174.51 54.7938 1181.07C55.637 1182.64 56.5017 1184.22 57.3448 1185.78C56.9989 1188.72 56.6747 1191.68 56.3504 1194.62C52.9563 1200.16 53.9507 1211.25 52.178 1216.54C49.627 1224.26 48.6758 1217.88 50.5782 1203.05C48.4596 1203.85 43.3144 1248.11 42.6226 1258.35C43.0333 1257.73 43.4441 1257.08 43.8548 1256.45C44.698 1245.99 45.6924 1235.55 46.8166 1225.1C52.3942 1217.04 47.4003 1245.04 46.6869 1258.07C46.622 1259.26 47.5084 1266.16 46.168 1279.19C45.6059 1284.23 41.693 1303.82 41.3687 1307.6C38.5583 1338.11 43.0117 1315.8 38.8826 1345.59C41.3471 1339.43 38.7961 1356.55 39.1204 1374.47C39.1204 1377.54 41.0444 1403.33 41.1958 1405.08C41.7146 1415.93 39.4879 1404.15 40.4175 1419.87C40.9796 1421.75 41.5417 1423.63 42.1254 1425.49C42.2551 1429.14 42.4064 1432.8 42.5577 1436.45C39.1636 1458.83 42.9685 1463.86 43.9197 1471.69C44.3305 1474.87 42.8604 1470.85 43.7684 1479.08C44.1143 1482.18 45.3465 1485.55 46.1896 1493.87C48.9568 1519.9 46.168 1529.26 53.6264 1552.57C53.5616 1556.31 53.54 1560.05 53.54 1563.79C54.6209 1566.14 55.7234 1568.5 56.8044 1570.86C57.9069 1589.99 58.8797 1582.88 60.0255 1589.64C62.9873 1607.59 70.4673 1644.02 69.7539 1647.54C76.8664 1662.02 77.515 1681.16 79.2877 1687.1C80.6713 1690.54 82.0549 1693.98 83.4601 1697.41C84.1951 1701.7 84.9301 1705.98 85.73 1710.26C88.4972 1707.29 91.5238 1729.69 92.194 1731.77C92.5615 1733.02 95.7178 1742.36 99.4146 1752.74C102.83 1762.38 106.678 1772.84 108.711 1778.68C112.861 1790.74 119.801 1811.95 120.536 1813.79C121.314 1815.91 129.962 1835.91 136.534 1851.6C141.419 1865.7 178.214 1945.95 177.501 1940.11C175.209 1934.79 171.837 1927.31 168.897 1920.85C158.541 1901.87 112.105 1787.03 102.506 1751.74C102.247 1750.92 101.987 1750.14 101.749 1749.41C81.6657 1686.28 65.6896 1618.83 56.5449 1552.89C56.0045 1549.02 56.9125 1548.29 56.4801 1544.96C55.7883 1539.9 53.1508 1527.21 52.6104 1522.21C50.4485 1503.58 48.6325 1480.79 47.9624 1470.76C46.4058 1448.34 46.4058 1432.93 46.0599 1415.96C45.9086 1410.66 44.1575 1383.74 45.1303 1365.3C45.4979 1361.97 45.887 1358.64 46.2761 1355.32C46.3194 1364.83 46.9895 1389.71 47.3138 1401.23C47.6813 1418.4 47.2057 1427.39 47.4651 1433.73C47.6165 1439.05 50.0378 1466.09 51.1187 1478.39C51.4213 1482.22 50.4269 1483.08 50.7079 1486.35C52.2212 1504.1 54.9019 1527.45 58.015 1542.6C56.7179 1536.42 61.7766 1575.46 62.2955 1577.49C62.8792 1581 64.4573 1584.63 65.7328 1591.72C68.219 1605.38 65.9274 1604.04 71.2888 1620.69C71.5915 1625.01 71.9157 1629.34 72.2616 1633.66C74.5964 1633.42 83.7411 1687.1 91.2211 1701.11C91.1995 1701.52 75.2018 1632.88 74.5964 1627.07C67.5272 1592.93 58.923 1541.97 56.1342 1508.2C55.0749 1498.04 54.2966 1466 54.2101 1463.6C53.9075 1459.74 53.1508 1463.3 53.0211 1461.62C50.362 1427.26 53.3886 1444.32 53.6913 1439.74C53.9291 1436.65 52.3509 1424.5 52.3293 1423.2C52.2645 1420.82 52.8482 1421.45 52.9995 1421.4C52.5239 1405.77 51.0754 1420.24 50.4485 1408.67C50.2756 1406.68 50.989 1379.46 51.2268 1368.42C51.3997 1351.4 52.3077 1334.41 52.632 1328.08C53.1292 1317.35 53.0427 1297.35 54.6425 1279.76C55.3127 1272.51 56.6963 1270.09 57.4529 1262.81C60.285 1234.9 66.0139 1190.88 73.9047 1151.58C79.1147 1125.14 84.8004 1100.79 89.2322 1084.58C91.9345 1074.68 96.0637 1065.55 97.3824 1060.32C97.9445 1056.02 98.5282 1051.72 99.1335 1047.42C107.976 1036.22 104.603 1030.71 108.343 1016.89C110.743 1008.18 113.618 1004.63 113.985 1003.49C116.472 995.834 117.012 991.834 118.936 985.781C121.098 979.014 125.27 969.653 126.005 967.232C126.503 965.762 122.503 969.61 132.448 943.84C142.738 917.637 154.11 892.257 166.843 866.638C156.444 872.194 157.136 881.728 152.51 892.451C151.278 895.348 151.105 893.078 150.024 895.586C146.954 902.677 142.068 916.686 139.409 922.48C136.512 928.75 135.107 925.615 132.686 934.111C132.556 934.544 134.026 933.614 133.421 935.603C127.411 955.471 123.303 961.135 114.699 985.846C107.846 1001.91 80.9955 1103.54 80.4767 1107.11C72.3049 1124.58 99.7821 1016.98 105.273 1005.02C106.765 1000.72 106.333 1005.61 107.803 1001.71C108.43 1000.07 111.305 984.375 116.407 969.588C122.395 951.623 137.788 916.838 145.181 900.429C186.862 804.483 245.253 717.315 313.482 639.379C346.363 601.675 381.861 566.22 419.542 532.948C422.007 530.765 424.234 526.744 432.405 519.717C543.546 424.485 675.787 347.976 817.086 298.792C869.511 280.546 923.082 265.931 977.085 254.971C1020.54 246.172 1064.03 238.216 1108.83 235.816C1114.25 233.978 1119.7 232.162 1125.17 230.368H1125.19ZM287.799 2114.92C287.864 2114.45 283.67 2108.93 282.329 2106.75V2106.77C280.838 2104.35 281.918 2105.06 279 2100.78C278.287 2100.65 277.573 2100.52 276.838 2100.39C280.448 2105.26 284.08 2110.1 287.777 2114.92H287.799ZM290.155 2103.96C271.952 2077.48 278.784 2089.61 260.127 2062.39C258.679 2062.04 286.912 2101.17 290.155 2103.96ZM121.941 1800.06C122.806 1804.75 123.714 1809.47 124.643 1814.16C125.162 1812.64 125.703 1811.11 126.243 1809.6C124.795 1806.42 123.368 1803.26 121.941 1800.08V1800.06ZM412.624 2245.31C407.263 2240.31 401.923 2235.25 396.648 2230.13C397.167 2231.36 397.708 2232.59 398.248 2233.83C403.026 2237.7 407.825 2241.52 412.624 2245.31ZM360.524 2163.8C366.966 2172.17 374.727 2178.81 370.922 2173.86C363.637 2164.3 359.399 2162.33 360.524 2163.8ZM389.579 2185.88C354.557 2148.15 373.17 2170.76 385.752 2182.94C388.26 2185.36 389.774 2186.55 389.579 2185.88ZM453.505 2282.25C453.7 2282.1 444.512 2274.28 443.279 2273.04C443.279 2273.04 443.279 2273.02 443.258 2273.02C442.739 2272.52 445.787 2274.58 441.572 2270.77C436.383 2266.49 431.26 2262.19 426.136 2257.82C424.731 2258.3 452.943 2282.56 453.505 2282.25ZM128.794 1713.02C130.135 1717.65 131.497 1722.3 132.902 1726.9C133.788 1727.81 134.696 1728.7 135.582 1729.61C133.291 1724.11 131.043 1718.58 128.816 1713.02H128.794ZM433.638 2238.91C433.119 2237.57 429.098 2232.98 422.958 2226.26C419.413 2224.1 411.457 2217.89 417.856 2225.46C417.856 2225.46 417.856 2225.48 417.878 2225.48C419.067 2226.89 424.32 2232.1 425.812 2233.85C430.027 2237.29 432.427 2238.99 433.313 2239.27C433.681 2239.38 433.767 2239.25 433.638 2238.91ZM457.007 2284C447.149 2277.13 479.08 2303.4 473.956 2297.99C473.178 2297.26 457.764 2284.59 457.007 2284ZM461.915 2266.84C459.537 2264.03 457.18 2261.2 454.845 2258.34C435.756 2241.83 460.034 2264.46 450.954 2257.39C454.586 2260.57 458.261 2263.73 461.936 2266.84H461.915ZM22.9497 1456.21C17.2424 1444.41 23.4469 1468.73 21.3932 1486.5C23.6847 1480.49 26.279 1507.12 26.7329 1508.62C27.3383 1505.46 27.9652 1502.32 28.6138 1499.17C26.4519 1488.03 24.4198 1476.84 22.5389 1465.62C22.6687 1462.48 22.7984 1459.35 22.9713 1456.21H22.9497ZM487.641 2286.88C488.895 2287.81 486.927 2285.24 484.744 2283.23C483.317 2282.04 460.358 2261.54 458.412 2259.86C459.039 2260.98 459.688 2262.1 460.337 2263.23C472.184 2271.7 481.825 2282.64 487.641 2286.88ZM475.232 2273.48C474.259 2272.31 476.032 2272.72 475.145 2271.81C469.935 2266.49 460.228 2257.93 459.493 2258.56C464.682 2263.57 469.935 2268.55 475.232 2273.48ZM558.787 2336.97C547.005 2328.5 535.375 2319.81 523.917 2310.9C527.981 2316.28 537.774 2321.62 546.768 2329.97C550.378 2332.63 554.031 2335.26 557.663 2337.9H557.685C558.052 2337.6 558.42 2337.3 558.787 2336.97ZM91.4373 1328.2C90.3564 1337.76 89.4052 1347.32 88.5837 1356.89C87.6108 1356.7 86.638 1356.5 85.6435 1356.31C86.1408 1351.16 86.6812 1346.04 87.2433 1340.9C86.8974 1339.08 86.5515 1337.24 86.2056 1335.43C84.6707 1341.76 83.179 1348.12 81.7738 1354.49C81.8171 1362.23 81.9468 1369.97 82.1413 1377.69C82.7466 1374.15 83.3736 1370.6 84.0005 1367.08C84.0005 1385.93 81.7306 1381.8 80.6496 1397.45C81.5144 1402.81 82.4008 1408.15 83.3303 1413.47C82.4872 1421.23 81.7306 1429.01 81.0604 1436.82C81.8819 1449.83 82.6169 1450.94 83.3087 1442.14C84.6707 1448.56 83.1574 1455.74 84.0005 1463.5C84.0654 1464.15 85.0815 1462.85 85.1247 1463.43C88.1513 1503.6 85.7732 1501.7 86.1191 1508.14C86.4218 1512.7 90.1402 1530.54 90.8104 1530.73C91.74 1530.93 90.7239 1493.2 97.577 1551.68C95.8907 1521.2 91.0698 1486.98 89.5133 1509.63C88.7566 1499.99 85.2544 1457.57 85.4273 1454.83C85.4273 1450.87 86.7893 1452.17 86.6596 1447.22C86.6164 1444.3 83.0925 1436.65 85.6003 1413.41C85.0815 1410.47 84.5626 1407.5 84.0654 1404.56C84.4978 1401.77 84.9301 1399.01 85.3841 1396.22C86.8326 1401.93 88.3026 1407.59 89.8159 1413.25C88.108 1390.73 91.8264 1372.07 89.8159 1358.32C90.6807 1346.47 91.3725 1340.74 92.4318 1345.89C92.6263 1342.34 92.8641 1338.8 93.1019 1335.25C92.5399 1332.9 91.9778 1330.54 91.4157 1328.16L91.4373 1328.2ZM33.8022 1200.5C34.3211 1188.01 29.1326 1207.79 27.7706 1207.22C26.7113 1217.32 24.8089 1240.26 23.8577 1250.48C23.3172 1256.34 21.2634 1249.42 22.0201 1275.02C20.8959 1280.49 19.7934 1286 18.7557 1291.5C19.1448 1301.79 19.6637 1312.08 20.2906 1322.32C19.2962 1324.18 18.3017 1326.02 17.3072 1327.88C17.0694 1328.98 18.5395 1352.66 19.2962 1351.42C17.3721 1360.91 16.9181 1380.59 17.3721 1401.26C17.9126 1403.24 18.453 1405.23 18.9935 1407.2C17.437 1387.22 19.3394 1400.84 20.1393 1394.88C20.5933 1391.44 21.5445 1380.93 22.366 1377.11C19.7501 1387.94 19.7934 1334.67 21.5661 1316.85C21.912 1312.53 23.7496 1304.9 23.7712 1301.76C23.3604 1299.82 22.9497 1297.89 22.5389 1295.95C24.4198 1293.85 25.0683 1258.89 25.6736 1245.08C26.4951 1243.87 27.3166 1242.66 28.1381 1241.47C28.4192 1236.45 28.7435 1231.44 29.0677 1226.42C29.6731 1227.14 30.2784 1227.87 30.8837 1228.58C30.5162 1224.71 30.1919 1220.82 29.846 1216.95C30.9053 1202.06 33.3915 1211.72 33.8022 1200.48V1200.5ZM621.719 2422.93C607.04 2414.8 585.032 2401.46 588.945 2405.03C598.155 2410.35 607.408 2415.53 616.747 2420.59C618.411 2421.37 620.076 2422.15 621.741 2422.93H621.719ZM582.33 2373.66C569.056 2364.47 561.944 2362.61 578.979 2372.47C579.498 2372.77 582.871 2374.05 582.33 2373.66ZM621.697 2393.44C604.921 2383.52 588.405 2373.2 572.148 2362.46C572.84 2362.7 573.553 2362.96 574.245 2363.2C589.94 2373.53 605.851 2383.47 622.022 2393.03C621.914 2393.16 621.806 2393.31 621.697 2393.44ZM586.027 2357.1C593.074 2361.81 601.549 2366.22 587.973 2356.93C575.088 2347.95 569.402 2345.81 586.027 2357.1ZM88.5404 1416.89C88.1297 1419.85 87.7189 1422.81 87.3082 1425.77C87.8919 1431 88.5188 1436.26 89.189 1441.49C89.47 1438.63 89.7727 1435.78 90.0753 1432.93C89.5349 1427.59 89.016 1422.25 88.5404 1416.89ZM76.4773 1117.66C75.5477 1124.51 74.6397 1131.47 73.7966 1138.3C72.8886 1142.5 71.9806 1146.73 71.0942 1150.99C57.9285 1213.56 49.5189 1280.58 48.0272 1341.82C47.249 1345.02 46.5139 1348.25 45.7789 1351.47C47.8543 1284.02 55.8099 1216.76 69.3648 1150.65C71.6347 1139.58 73.9911 1128.64 76.4773 1117.68V1117.66ZM673.906 2424.01C688.24 2430.91 717.143 2444.91 706.291 2441.11C691.136 2432.98 680.954 2428.53 659.206 2416.36C662.535 2417.85 665.864 2419.34 669.193 2420.81C669.193 2420.81 669.215 2420.81 669.237 2420.83C670.772 2421.89 672.328 2422.95 673.885 2424.01H673.906ZM711.436 2460.16C706.875 2458.32 702.313 2456.44 697.752 2454.56C697.557 2453.67 688.326 2449.09 676.111 2443.66C676.587 2444.14 677.084 2444.61 677.56 2445.09C684.089 2447.55 691.374 2452.42 710.982 2461.11C711.134 2460.8 711.285 2460.48 711.436 2460.16ZM710.204 2436.98C708.626 2436.25 703.978 2434.08 703.718 2433.95C703.027 2433.54 704.086 2433.52 699.027 2430.91C686.986 2424.51 670.685 2418.11 710.053 2437.43C710.096 2437.28 710.139 2437.13 710.204 2436.98ZM96.5393 1348.66C96.8852 1345 98.312 1330.15 97.1446 1331.9C95.9556 1338.32 94.8098 1344.74 93.7289 1351.19C94.0315 1354.21 94.3342 1357.24 94.6369 1360.27C94.9828 1356.05 96.4312 1349.63 96.5393 1348.66ZM708.691 2428.94C721.035 2435.32 717.446 2432.35 716.646 2431.92C711.35 2428.98 689.407 2418.78 708.691 2428.94ZM773.071 2475.92C754.457 2468.37 738.849 2462.1 719.24 2452.42C738.395 2460.59 747.539 2465.5 766.542 2472.5H766.563C768.725 2473.65 770.887 2474.79 773.071 2475.92ZM111.759 1191.42C103.479 1202.75 96.3447 1283.73 90.5293 1312.03C91.0698 1315.06 91.6319 1318.09 92.194 1321.09C92.7128 1305.5 95.5016 1294.89 96.5609 1287.34C97.4257 1281.38 96.5177 1281.92 96.5609 1281.46C96.5609 1281.44 96.5609 1281.42 96.5609 1281.4C98.5498 1267.39 99.9766 1263.17 101.555 1252.62C105.706 1225.93 105.576 1210.21 111.737 1191.42H111.759ZM753.636 2462.88C785.112 2476.07 751.884 2463.14 744.296 2459.23C739.735 2456.94 750.414 2461.52 753.636 2462.88ZM768.271 2468.26C788.571 2477.65 729.185 2452.01 748.058 2459.59C748.923 2460 767.45 2467.94 768.271 2468.26ZM765.85 2455.21C740.427 2444.09 747.431 2446.36 746.199 2445.82C725.575 2435.4 739.929 2445.71 765.85 2455.21ZM773.568 2484.63C770.109 2483.29 766.672 2481.93 763.234 2480.56C761.959 2480.39 760.683 2480.22 759.408 2480.02C765.158 2482.36 770.909 2484.63 776.681 2486.88C775.643 2486.12 774.606 2485.36 773.59 2484.63H773.568ZM855.178 2508.69C836.413 2502.34 810.363 2493.75 801.261 2490.34C797.802 2489.06 797.283 2488.46 794.516 2487.42C778.627 2481.45 762.996 2476.02 761.894 2474.17C776.595 2480.61 790.452 2484.91 792.873 2485.9C794.754 2486.68 807.163 2492.67 822.275 2496.74C833.17 2500.89 844.131 2504.86 855.156 2508.69H855.178ZM95.9124 1242.85C93.1236 1255.65 90.5726 1268.51 88.2594 1281.42C89.3403 1281.53 90.3996 1281.64 91.4805 1281.72C92.7344 1268.73 94.2045 1255.76 95.8907 1242.83L95.9124 1242.85ZM832.868 2494.27C814.492 2487.76 796.289 2480.78 778.259 2473.37C781.761 2474.4 785.242 2475.42 788.744 2476.44C796.57 2479.79 804.461 2483.05 812.373 2486.23C807.79 2484.56 803.185 2482.9 798.624 2481.19C809.952 2485.73 821.388 2490.1 832.868 2494.27ZM109.489 1212.52C106.722 1229.32 100.431 1261.73 103.414 1261.62C105.403 1245.99 107.738 1230.44 110.375 1214.9C110.073 1214.1 109.77 1213.3 109.489 1212.5V1212.52ZM103.111 1209.69C106.333 1182.88 102.247 1200.37 101.987 1200.61C100.906 1201 101.014 1193.8 98.1175 1203.31C97.404 1209.26 96.7339 1215.22 96.1285 1221.17C95.0908 1224.02 94.0748 1226.88 93.0803 1229.73C92.4318 1241.66 95.1125 1226.31 96.9717 1224.8C97.6851 1224.22 96.6258 1235.33 101.079 1221.86C102.225 1216.2 100.777 1218.73 100.841 1218.25C101.512 1214.51 102.938 1211.12 103.111 1209.67V1209.69ZM45.6924 1106.78C42.0821 1128.4 38.7312 1141.7 43.0117 1136.9C43.0117 1136.9 43.0117 1136.88 43.0117 1136.85C45.0439 1125.83 47.1841 1114.74 49.454 1103.73C48.2002 1104.75 46.9463 1105.77 45.6924 1106.78ZM821.95 2477.75C835.57 2481.93 783.339 2461.11 800.007 2469.58C802.558 2470.68 805.109 2471.77 807.682 2472.85C812.438 2474.51 817.194 2476.15 821.972 2477.78C821.972 2477.78 821.95 2477.78 821.95 2477.75ZM822.62 2479.61C835.116 2484.28 832.543 2482.19 829.474 2480.93C824.09 2478.75 811.227 2473.95 816.567 2476.59C817.518 2477.08 830.446 2481.56 822.62 2479.61ZM869.533 2518.72C864.215 2517.1 858.896 2515.44 853.6 2513.73C860.712 2515.76 867.846 2517.75 875.002 2519.67C873.186 2519.35 871.349 2519.05 869.533 2518.72ZM870.549 2496.54C864.906 2494.08 859.264 2491.55 853.686 2488.97C850.336 2487.81 847.006 2486.62 843.655 2485.43C842.272 2485.75 840.888 2486.08 839.505 2486.4C840.672 2486.64 841.861 2486.88 843.028 2487.12C852.151 2490.38 861.318 2493.51 870.527 2496.54H870.549ZM896.037 2510.46C897.334 2510.92 894.459 2510.44 896.599 2511.22C890.827 2509.38 885.076 2507.48 879.326 2505.53C873.986 2504.11 868.668 2502.64 863.35 2501.12C861.642 2500.5 859.934 2499.85 858.226 2499.2C860.539 2499.94 862.853 2500.63 865.187 2501.34C808.957 2481.88 880.991 2505.75 895.994 2510.46H896.037ZM874.267 2518.48C877.013 2519.39 879.65 2520.41 878.785 2520.3C869.706 2519.2 847.114 2509.3 874.267 2518.48ZM54.0588 1085.42C56.7179 1079.2 57.6042 1060.11 54.5128 1072.04C52.178 1081.16 52.632 1088.77 54.0588 1085.42ZM897.248 2522.61C892.448 2521.42 853.859 2509.71 862.009 2511.85C877.942 2516.8 887.022 2519.02 900.836 2523.26C899.647 2523.05 898.458 2522.83 897.248 2522.61ZM897.637 2521.12C888.168 2518.53 878.742 2515.85 869.338 2513.01C871.954 2513.56 874.57 2514.07 877.164 2514.59C881.423 2515.85 885.682 2517.08 889.962 2518.29C892.513 2519.24 895.064 2520.19 897.615 2521.12H897.637ZM80.4118 1000.81C76.7583 999.725 80.4767 986.192 71.3969 1003.98C70.3592 1007.68 69.3648 1011.38 68.3703 1015.07C68.4784 1017.71 68.5865 1020.37 68.6946 1023.01C49.6702 1067.95 56.4369 1084.75 74.4235 1004.94C74.4235 1004.94 74.4235 1004.91 74.4235 1004.89C76.4124 1003.51 78.4013 1002.15 80.3902 1000.81H80.4118ZM943.014 2537.34C926.173 2533.62 909.419 2529.53 892.751 2525.08C900.62 2527.02 908.468 2528.9 916.359 2530.7C915.061 2530.09 913.764 2529.49 912.467 2528.88C917.958 2530.22 923.428 2531.52 928.919 2532.8C932.745 2533.79 919.969 2531.87 943.014 2537.34ZM898.394 2504.93C893.789 2503.5 889.184 2502.03 884.579 2500.54C885.79 2500.71 887.001 2500.89 888.211 2501.06C892.254 2502.38 896.297 2503.65 900.361 2504.91C899.712 2504.93 899.042 2504.93 898.372 2504.93H898.394ZM1115.94 2548.38C1118.49 2548.73 1133.24 2549.92 1130.49 2549.94C1116.03 2548.62 1101.59 2547.04 1087.19 2545.18C1090.76 2545.42 1094.3 2545.64 1097.87 2545.85C1062 2541.38 1073.89 2542.74 1063.54 2541.81C1057.51 2540.71 1051.5 2539.56 1045.51 2538.35C1032.34 2536.36 1019.22 2534.16 1006.14 2531.76C1009.12 2532.19 1012.11 2532.6 1015.11 2533.01C995.504 2528.82 1000.93 2530.07 990.143 2528.21C990.143 2528.04 990.164 2527.87 990.186 2527.69C971.205 2523.95 967.681 2522.44 963.574 2521.47C961.995 2521.08 960.287 2520.75 958.385 2520.39C950.213 2518.79 937.891 2517.1 912.619 2507.91C898.956 2505.08 899.885 2502.94 891.757 2501.64C869.662 2493.32 912.186 2507.42 932.702 2512.8C932.702 2512.82 932.724 2512.82 932.745 2512.82C934.28 2513.23 931.881 2512.39 937.35 2513.88C937.912 2514.03 938.301 2514.46 942.798 2515.65C947.705 2516.95 953.11 2518.36 958.58 2519.74C971.118 2522.9 984.046 2525.88 992.196 2527.65C1020.17 2534.72 1107.64 2547.09 1117.97 2548.02C1120.11 2548.38 1115.14 2548.25 1116.01 2548.38H1115.94ZM1030.79 2550.35C1007.03 2547.09 998.336 2544.77 992.478 2544.71C991.375 2544.3 990.251 2543.89 989.148 2543.48C971.27 2539.8 963.444 2538.48 954.623 2536.93C952.31 2536.51 949.911 2536.06 947.273 2535.52C947.36 2535.39 947.446 2535.24 947.532 2535.09C939.101 2533.19 930.67 2531.17 922.26 2529.08C923.406 2529.49 924.574 2529.88 925.741 2530.29C922.758 2529.55 919.796 2528.82 916.813 2528.08C909.7 2525.75 900.599 2523.22 911.797 2525.62C923.341 2528.82 937.22 2532.06 954.84 2535.91C958.018 2536.6 961.325 2537.29 964.763 2538.03H964.806C965.93 2538.27 967.854 2538.96 971.464 2539.69C974.469 2540.73 1035.58 2551 1030.81 2550.35H1030.79ZM1055.5 2560.08C1056.25 2560.51 1041.62 2558.74 1033.38 2557.59C1034.61 2557.81 1035.84 2558.05 1037.06 2558.26C1019.46 2556.04 986.878 2550.46 985.538 2550.89C973.042 2548.77 978.685 2549.12 974.685 2548.32C973.475 2548.06 963.401 2546.42 952.937 2544.17C949.911 2543.5 946.841 2542.81 943.944 2542.07C940.874 2541.42 937.783 2540.75 934.713 2540.08C934.064 2540.21 933.394 2540.32 932.745 2540.45C928.53 2539.2 924.336 2537.9 920.142 2536.58C931.059 2539.13 942.02 2541.53 953.024 2543.78C986.943 2550.7 1021.1 2556.12 1055.41 2560.08H1055.47H1055.5ZM90.8752 1017.86C87.9135 1026.71 85.0166 1035.61 82.271 1044.5C82.0116 1047.63 81.7738 1050.79 81.536 1053.92C85.1895 1040.69 90.3564 1026.29 90.8752 1017.86ZM933.091 2516.17C923.709 2513.66 914.37 2511.03 905.052 2508.28C940.723 2518.18 911.516 2509.84 933.264 2515.46C933.199 2515.7 933.156 2515.93 933.091 2516.17ZM947.662 2533.73C937.437 2531.37 927.233 2528.88 917.072 2526.27H919.428C924.076 2527.52 928.703 2528.75 933.372 2529.94C936.983 2530.7 940.615 2531.43 944.246 2532.17C945.392 2532.69 946.538 2533.21 947.662 2533.73ZM1027.93 2545.08C1027.35 2545.47 1001.9 2540.6 1015.16 2543.52C1002.44 2541.14 967.335 2534.22 959.185 2532.17C957.823 2531.85 956.742 2531.54 955.899 2531.3C953.607 2530.63 952.851 2530.22 952.31 2530.09C949.349 2529.45 923.233 2523.54 920.185 2522.38C916.445 2521.01 933.913 2525.71 956.007 2530.79C984.954 2537.62 1022.01 2544.21 1027.93 2545.08ZM956.915 2526.76C949.781 2525.14 942.647 2523.48 935.556 2521.73C934.518 2521.36 933.502 2521.01 932.464 2520.65C938.82 2522.18 945.155 2523.67 951.532 2525.12C953.348 2525.62 955.142 2526.12 956.958 2526.61C958.104 2526.92 959.25 2527.24 960.417 2527.54C959.25 2527.28 958.082 2527.02 956.937 2526.76H956.915ZM997.558 2547.56C990.294 2546.29 983.052 2544.95 975.81 2543.56C978.209 2544.17 980.609 2544.8 982.987 2545.38C974.491 2543.87 966.016 2542.24 957.542 2540.51C961.195 2541.12 964.849 2541.7 968.503 2542.27C963.703 2541.27 958.904 2540.26 954.105 2539.2C951.683 2538.66 949.24 2538.11 946.819 2537.55C943.663 2536.62 947.597 2537.34 954.234 2538.66C966.297 2541.1 987.311 2545.1 990.208 2545.64C991.202 2545.83 995.85 2547.15 997.58 2547.56H997.558ZM124.773 869.254C128.578 862.293 164.422 793.436 153.915 806.818C149.137 812.591 143.538 827.832 142.889 829.043C140.641 833.15 136.274 837.777 132.945 844.954C131.021 849.105 128.816 858.747 124.989 867.2C116.277 885.987 96.6258 919.108 92.5182 946.737C91.286 948.358 90.0537 950.001 88.8215 951.623C82.5737 970.907 86.5731 965.091 78.5743 982.214C83.1142 997.477 102.874 910.719 104.279 930.933C104.279 930.933 104.279 930.912 104.279 930.89C105.533 927.301 106.786 923.691 108.084 920.124C106.397 918.762 104.689 917.421 103.003 916.059C111.586 907.952 112.321 893.143 124.146 875.286C124.341 873.275 124.535 871.265 124.752 869.232L124.773 869.254ZM87.4595 916.038C85.5138 925.183 76.3476 947.602 71.5915 963.664C78.8553 950.909 80.7794 937.462 89.2106 916.643C88.6269 916.427 88.0432 916.232 87.4595 916.038ZM1001.95 2544.19C994.899 2543.8 980.285 2540.64 973.107 2538.44C982.036 2540.17 982.403 2540.58 984.457 2541.01C990.597 2542.27 995.958 2543.11 1001.95 2544.19ZM993.45 2530.16C988.089 2529.16 982.749 2528.15 977.409 2527.09C977.755 2526.92 978.101 2526.76 978.447 2526.59C981.085 2527.15 983.722 2527.69 986.338 2528.21C988.716 2528.88 991.094 2529.53 993.45 2530.16ZM1008.17 2548.9C1027.24 2551.17 1022.68 2552.25 1004.89 2548.82C1004 2548.62 1006.75 2548.73 1008.17 2548.9ZM158.239 901.164C152.899 901.034 120.903 994.039 125.487 986.429C135.972 954.952 147.775 930.35 158.239 901.164ZM143.3 961.957C140.209 969.804 137.182 977.717 134.285 985.629C136.75 977.565 139.322 969.502 141.982 961.503C142.414 961.654 142.868 961.805 143.3 961.957ZM172.874 976.766C174.95 971.491 180.722 952.617 179.771 953.136C175.771 960.378 171.902 967.621 168.075 975.014C169.221 975.49 170.367 975.944 171.512 976.42C170.518 977.284 169.524 978.149 168.507 979.014C167.254 983.511 166 988.051 164.811 992.569C162.973 994.407 161.157 996.266 159.32 998.125C159.666 1000.76 160.011 1003.38 160.357 1006.02C170.129 985.543 167.967 985.629 169.653 981.241C170.518 979.036 171.794 977.911 172.464 977.263C172.593 977.111 172.745 976.938 172.874 976.787V976.766ZM1103.9 2559.04C1096.59 2558.41 1089.26 2557.72 1081.98 2556.94C1084.36 2557.36 1086.76 2557.77 1089.16 2558.16C1085.55 2557.85 1081.96 2557.51 1078.37 2557.16C1072.25 2556.23 1066.15 2555.26 1060.08 2554.2C1075.93 2556.15 1091.79 2557.77 1107.68 2559.06C1106.43 2559.06 1105.18 2559.04 1103.92 2559.04H1103.9ZM1099.9 2551C1153.69 2556.19 1098.52 2552.04 1072.08 2547.84C1072.29 2547.8 1094.93 2550.52 1099.9 2551ZM1117.09 2556.34C1106.8 2555.41 1096.51 2554.33 1086.24 2553.12C1098.37 2554.42 1110.51 2555.56 1122.66 2556.49C1120.81 2556.45 1118.95 2556.4 1117.07 2556.34H1117.09ZM181.868 869.989C188.548 858.336 174.842 894.613 171.966 891.327C175.166 884.171 178.474 877.059 181.868 869.989ZM221.559 772.768C222.878 769.569 278.524 689.384 249.383 723.088C242.746 732.557 236.238 742.113 229.904 751.798C240.605 747.474 218.36 770.412 216.955 772.617C209.756 782.735 202.903 797.046 198.32 804.743C194.363 811.38 191.121 814.796 188.483 819.552C179.425 835.701 166.238 861.839 166.843 866.595C173.22 853.753 179.987 840.825 187.121 827.724C194.731 813.844 203.573 803.078 216.436 776.119C220.695 770.109 220.997 773.438 221.559 772.747V772.768ZM1177.45 2564.77C1171.72 2565.12 1122.79 2562.93 1129.58 2562.72C1137.06 2563.17 1143.31 2563.43 1151.07 2563.78C1152.63 2563.84 1155.31 2564.43 1170.14 2564.47C1172.58 2564.58 1175.02 2564.68 1177.47 2564.77H1177.45ZM1159.91 2553.96C1161.4 2554.18 1183.91 2555.5 1177.81 2555.54C1174.12 2555.37 1170.42 2555.17 1166.72 2554.96C1165.47 2554.78 1164.24 2554.61 1162.98 2554.44C1159.39 2554.33 1155.83 2554.2 1152.24 2554.07C1146.23 2553.42 1133.45 2552.08 1148.67 2553.01C1143.07 2552.62 1137.49 2552.21 1131.9 2551.76C1129 2551.63 1126.08 2551.52 1123.18 2551.37C1124.72 2551.3 1126.25 2551.26 1127.77 2551.19C1139.57 2552.25 1151.42 2553.12 1163.26 2553.81C1165.51 2554.03 1158.23 2553.79 1159.93 2553.96H1159.91ZM1173.99 2559.52C1163.57 2559.65 1146.27 2558.33 1130.06 2557.23C1129.76 2556.99 1164.76 2559.39 1173.99 2559.52ZM1240.1 2562.83C1224.27 2563.71 1199.71 2563.58 1182.44 2563.17C1149.04 2562.24 1172.11 2563.17 1166.44 2563.13C1163.63 2563.15 1144.72 2561.81 1137.08 2561.64C1143.89 2561.57 1209.92 2564.4 1240.1 2562.83ZM159.536 801.068C162.195 798.992 173.285 776.595 172.031 777.416C171.404 777.654 154.088 805.046 159.536 801.068ZM1183.07 2566.07C1194.59 2566.15 1192.67 2566.48 1192.19 2566.61C1188.51 2566.59 1184.84 2566.54 1181.19 2566.5C1181.81 2566.35 1182.46 2566.2 1183.09 2566.07H1183.07ZM193.131 745.507C195.142 739.194 194.796 735.475 184.938 749.182C184.938 749.182 184.938 749.182 184.938 749.204C187.424 752.403 176.398 764.51 172.896 771.039C172.269 772.92 171.642 774.8 171.015 776.681C178.214 766.11 185.586 755.711 193.153 745.485L193.131 745.507ZM1236.38 2556.51C1217.66 2556.45 1215.67 2556.58 1214.33 2556.6C1208.1 2556.53 1212.71 2556.45 1208.71 2556.38C1198.33 2556.25 1174.81 2555.41 1185.49 2555.37C1189.34 2555.37 1198.22 2555.8 1199.76 2555.8C1201.29 2555.8 1202.13 2555.26 1218.11 2556.17C1222.95 2556.17 1227.77 2556.17 1232.62 2556.12C1233.87 2556.25 1235.12 2556.38 1236.38 2556.51ZM1269.63 2563.88C1266.06 2564.36 1241.11 2565.7 1229.27 2565.98C1228.75 2565.98 1231.99 2565.79 1223.62 2566C1221.12 2566.11 1196.34 2566.82 1201.79 2566.22C1224.42 2566.07 1247.04 2565.29 1269.61 2563.88H1269.63ZM1232.77 2566.22C1231.23 2566.26 1229.72 2566.31 1228.21 2566.35C1230.07 2566.31 1231.56 2566.26 1232.77 2566.22ZM1328.52 2559.52C1292.54 2562.98 1295.79 2562.95 1271.53 2564.42C1261.65 2565.03 1264.66 2565.03 1259.79 2565.35C1217.92 2567.54 1247.84 2565.85 1232.79 2566.22C1243.88 2565.87 1254.97 2565.38 1266.06 2564.73C1265.13 2564.92 1328.88 2559.58 1331.85 2558.87C1330.74 2559.09 1329.64 2559.3 1328.52 2559.52ZM256.668 730.2C247.523 743.15 238.681 756.295 230.142 769.655C230.142 769.655 230.142 769.633 230.164 769.612C238.53 765.115 235.547 760.899 254.29 737.486C255.09 735.043 255.868 732.622 256.668 730.222V730.2ZM1284.24 2560.92C1252.14 2562.61 1267.98 2562.22 1251.27 2562.54C1262.28 2562.11 1273.26 2561.53 1284.24 2560.79C1284.24 2560.84 1284.24 2560.88 1284.24 2560.92ZM235.568 677.904C224.024 692.54 227.137 690.27 215.485 702.723C203.53 725.206 215.29 707.327 217.43 708.862C220.068 703.695 222.748 698.572 225.472 693.405C235.568 683.568 228.888 694.983 229.061 695.156C229.061 695.156 229.061 695.156 229.061 695.134C229.688 695.61 229.58 696.042 233.061 692.043C233.86 687.351 234.682 682.638 235.547 677.904H235.568ZM1287.57 2554.76C1288.87 2554.7 1278.25 2555.58 1266.21 2555.71C1254.6 2555.82 1280.72 2555.06 1287.57 2554.76ZM1294.79 2562.2C1290.1 2562.65 1285.41 2563.06 1280.72 2563.45C1278.3 2563.54 1275.85 2563.6 1273.41 2563.67C1278.75 2563.3 1284.09 2562.91 1289.43 2562.48C1291.2 2562.39 1293 2562.31 1294.77 2562.2H1294.79ZM299.213 684.519C300.446 677.493 287.453 695.718 281.854 700.885C272.817 709.165 282.156 693.924 265.359 718.31C265.532 716.926 265.705 715.564 265.878 714.181C255.349 727.995 262.591 726.244 261.23 729.098C260.797 729.963 254.182 738.48 253.296 740.275C242.292 762.261 272.536 716.04 274.352 714.267C275.973 711.975 298.694 686.66 299.192 684.519H299.213ZM1335.07 2551.63C1355.63 2549.83 1387.54 2545.75 1369.44 2548.25C1341.66 2551.58 1313.79 2553.92 1285.86 2555.28C1284 2555.3 1282.14 2555.35 1280.29 2555.37C1301.13 2554.57 1294.64 2554.13 1312.76 2553.2C1315.8 2553.01 1306.98 2553.96 1326.14 2552.34H1324.08C1328.43 2552.02 1332.75 2551.65 1337.1 2551.28C1336.43 2551.39 1335.74 2551.52 1335.07 2551.63ZM295.625 753.96C292.987 757.203 290.371 760.424 287.777 763.71C286.458 766.218 285.14 768.704 283.843 771.212C286.458 768.293 289.074 765.375 291.733 762.478C293.03 759.624 294.306 756.792 295.625 753.96ZM322.583 632.201C319.881 635.531 317.481 638.579 315.535 641.195C311.817 646.21 309.785 649.691 310.433 651.031C307.493 653.388 304.618 655.701 301.678 658.122C298.132 663.181 294.673 668.219 291.214 673.299C290.069 671.483 289.788 671.937 285.01 680.152C281.94 683.179 278.87 686.206 275.822 689.297C275.368 691.264 274.936 693.232 274.503 695.178C271.282 697.383 268.104 699.588 264.883 701.836C257.187 714.224 264.364 708.538 263.845 712.581C273.401 695.221 306.758 660.328 318.67 643.897C319.535 642.687 320.27 641.562 320.875 640.525C321.459 639.552 313.676 646.318 322.583 632.18V632.201ZM286.48 620.527C282.481 622.883 278.503 625.262 274.547 627.661C263.845 640.892 253.468 654.274 243.308 667.959C243.74 668.5 244.151 669.062 244.583 669.602C252.971 654.49 259.305 650.859 261.9 647.832C261.9 647.832 261.9 647.853 261.878 647.875C270.18 638.276 278.157 629.175 286.502 620.527H286.48ZM317.632 726.59C314.087 730.438 310.563 734.308 307.039 738.221C306.629 740.145 306.218 742.048 305.829 743.972C309.698 738.156 313.655 732.341 317.632 726.59ZM291.971 701.879C290.155 701.793 324.529 660.825 314.346 676.434C306.801 684.779 299.321 693.275 291.971 701.879ZM1445.39 2540.17C1444.57 2540.34 1444.85 2540.32 1444.57 2540.38C1441.21 2541.1 1438.1 2541.7 1435.07 2542.33C1429.24 2543.54 1424.48 2544.56 1414.08 2546.52C1406.04 2548.02 1405.95 2547.93 1403.12 2548.43C1400.72 2548.88 1376.83 2553.25 1361.33 2555.26C1338.35 2558.96 1409.52 2547.19 1445.41 2540.17H1445.36H1445.39ZM315.925 586.477C310.477 585.266 307.299 587.58 292.706 609.653C293.83 609.263 294.955 608.874 296.079 608.485C304.683 598 309.18 591.406 309.439 594.887C311.579 592.076 313.741 589.266 315.903 586.477H315.925ZM1469.19 2531.97C1455.53 2535.28 1393.65 2545.49 1389.83 2545.49C1392.81 2545.03 1395.77 2544.6 1398.76 2544.12C1401.7 2543.71 1400.07 2543.99 1401.35 2543.8H1401.39C1420.16 2541.31 1464.45 2533.06 1469.21 2531.97H1469.19ZM344.634 612.377C340.959 615.641 337.305 618.927 333.673 622.256C333.5 623.77 333.306 625.283 333.133 626.797C333.133 626.797 333.133 626.796 333.155 626.775C336.938 621.954 340.764 617.133 344.612 612.377H344.634ZM462.693 446.169C456.899 451.163 451.17 456.201 445.463 461.281C444.966 460.697 444.49 460.135 443.993 459.552C436.664 468.653 400.064 498.66 399.524 495.893C398.356 498.423 397.189 500.952 396.043 503.481C377.213 516.453 365.193 532.235 345.758 547.714C345.045 549.725 344.331 551.714 343.618 553.724C342.234 554.092 340.851 554.481 339.467 554.848C333.111 561.248 326.82 567.712 320.616 574.262C302.759 597.762 344.223 558.61 348.979 553.703C349.585 553.011 348.158 551.757 352.006 547.498C358.6 539.672 401.339 502.055 414.073 489.861C415.002 490.748 415.954 491.613 416.883 492.499C421.769 486.554 426.72 480.63 431.714 474.75C433.962 475.571 450.068 458.19 448.965 465.691C453.808 459.487 458.715 453.325 463.666 447.185C463.341 446.84 462.996 446.494 462.65 446.148L462.693 446.169ZM364.631 621.327C356.913 629.758 350.579 635.985 350.752 632.936C354.946 628.526 359.183 624.181 363.464 619.857C363.853 620.354 364.264 620.851 364.653 621.327H364.631ZM429.962 547.671C431.822 541.444 400.259 571.776 392.714 578.824C388.844 582.196 366.685 599.146 353.606 615.728C353.822 615.814 354.06 615.879 354.276 615.965C362.102 616.419 406.052 566.177 429.941 547.649L429.962 547.671ZM1463.65 2536.1C1461.08 2536.95 1454.34 2538.42 1445.43 2540.17C1454.49 2538.18 1458.49 2537.31 1463.65 2536.1ZM1473.23 2533.77C1469.21 2534.76 1466.27 2535.48 1463.65 2536.1C1463.94 2536 1464.17 2535.93 1464.35 2535.84C1467.31 2535.17 1470.27 2534.48 1473.23 2533.77ZM1521.92 2519.76C1539.3 2515.41 1501.94 2524.86 1499.63 2525.25C1496.58 2525.94 1489.55 2527.8 1472.89 2531.13C1486.01 2528.39 1499.11 2525.42 1512.12 2522.22C1481.99 2529.38 1507.28 2523.41 1518.31 2520.69L1521.92 2519.76ZM467.211 500.844C457.526 508.454 447.971 516.193 438.545 524.106C439.258 523.025 439.95 521.944 440.664 520.863C425.812 532.17 421.596 539.066 413.986 545.422C413.986 545.422 413.986 545.422 414.008 545.401C413.186 546.093 411.327 545.941 408.365 548.579C401.491 554.567 382.207 572.208 380.932 575.43C377.991 581.98 415.175 544.99 422.828 538.85C426.179 535.975 430.979 533.381 433.032 531.651C435.281 529.749 437.27 525.9 442.782 521.317C444.36 519.934 463.514 506.573 471.254 500.195C469.914 500.412 468.573 500.628 467.233 500.866L467.211 500.844ZM1549.13 2512.82C1546.35 2513.71 1543.53 2514.57 1540.75 2515.41C1549.16 2512.82 1532.19 2518.1 1519.62 2521.62C1519.95 2521.55 1537.94 2516.3 1550.82 2512.3C1550.26 2512.47 1549.7 2512.65 1549.13 2512.82ZM1369.81 269.909C1244.27 240.443 1092.23 247.598 958.45 277.065C943.836 280.243 941.998 278.6 936.745 280.049C933.329 281 934.302 282.47 929.719 283.573C893.248 292.393 857.556 302.965 822.707 315.115C699.459 358.288 587.173 421.026 486.019 497.925C477.696 503.892 437.01 533.316 432.146 543.996C428.298 551.822 453.678 526.484 458.434 522.809C461.915 519.977 463.104 521.144 465.439 519.263C467.903 517.274 465.157 518.053 468.011 515.718C480.118 505.86 493.889 495.85 505.195 487.375C602.911 414.195 709.685 357.834 823.982 318.79C839.245 313.601 854.638 308.694 870.16 304.111C886.136 299.441 883.304 301.927 884.104 301.689C884.104 301.689 884.104 301.689 884.125 301.668C969.735 277.303 1070.59 257.413 1165.27 256.095C1231.84 255.122 1298.38 259.9 1363.91 270.342C1365.87 270.19 1367.82 270.039 1369.79 269.888L1369.81 269.909ZM651.466 379.756C647.359 380.123 641.111 385.268 638.452 386.436C637.803 386.717 641.911 382.934 635.966 385.766C634.777 387.452 633.588 389.16 632.42 390.846C638.733 387.084 645.089 383.409 651.466 379.756ZM910.457 226.995C907.495 225.742 904.533 224.488 901.55 223.255C884.817 231.363 855.61 237.783 862.636 241.199C862.636 241.199 862.658 241.199 862.68 241.199C894.394 227.99 874.894 236.616 910.478 226.995H910.457ZM1048.12 271.941C1030.76 274.233 1013.47 276.914 996.218 280.005C994.618 280.286 987.397 283.248 993.061 282.621C1011.31 278.622 1029.68 275.076 1048.12 271.941ZM1111.14 242.54C1084.59 247.512 1046.33 248.658 1021.06 252.592C1014.03 253.673 1016.34 254.754 1015.96 254.841H1015.91C1011.93 255.446 993.342 255.165 988.846 260.289C993.969 259.965 1107.81 244.183 1111.29 244.247C1112.18 243.902 1110.84 243.102 1111.16 242.54H1111.14ZM995.504 201.139C990.964 201.139 970.837 210.997 977.755 210.738C984.998 208.576 992.261 206.457 999.568 204.404C998.228 203.301 996.866 202.22 995.526 201.139H995.504ZM1118.32 186.481C1095.84 186.784 1071.86 188.016 1076.4 194.221C1071.32 194.826 1066.22 195.475 1061.14 196.145C1065.09 192.837 1064.42 191.951 1050.87 192.059C1048.43 196.275 1034.42 196.275 1018.85 199.755C1030.29 198.069 1041.75 196.534 1053.23 195.172C1053.31 195.842 1053.4 196.513 1053.49 197.183C1028 200.599 1060.12 200.166 1076.44 195.605C1077.85 196.361 1079.25 197.096 1080.66 197.853C1083.73 196.599 1086.8 195.345 1089.89 194.091C1094.41 194.286 1098.91 194.524 1103.42 194.761C1108.35 191.973 1113.3 189.227 1118.3 186.481H1118.32ZM1228.66 264.396C1231.36 262.429 1214.39 262.105 1208.75 261.975C1184.26 261.154 1152.87 262.861 1127.44 264.245C1129.41 264.764 1131.36 265.304 1133.3 265.845C1165.06 264.051 1196.88 263.597 1228.66 264.418V264.396ZM1132.83 234.022C1142.99 232.443 1237.31 231.233 1229.37 228.206C1225.33 226.239 1192.92 227.795 1183.39 228.098C1170.57 228.185 1135.57 226.174 1132.83 234.022ZM1218.69 180.579C1199 182.049 1208.86 185.141 1184.04 186.827C1184.04 186.827 1184.02 186.827 1184 186.827C1196.84 186.654 1209.68 186.698 1222.52 186.935C1221.25 184.817 1219.97 182.698 1218.69 180.579ZM1297.06 269.563C1288.41 266.299 1267.18 265.218 1253.98 264.591C1262.99 267.077 1284.72 267.401 1297.06 269.563ZM1299.76 235.708C1301.73 231.86 1242.69 228.141 1236.88 229.028C1238.09 229.568 1239.95 230.757 1241.57 231.06C1249.48 232.357 1287.18 233.568 1299.76 235.708ZM1346.61 280.049C1333.64 277.865 1320.6 275.898 1307.55 274.168C1307.46 275.119 1307.37 276.092 1307.29 277.044C1307.29 277.044 1307.31 277.044 1307.33 277.044C1320.43 277.822 1333.53 278.816 1346.61 280.049ZM1295.92 185.898C1290.88 185.249 1285.82 184.644 1280.76 184.06C1278.04 185.357 1275.31 186.676 1272.59 187.973C1272.59 187.973 1272.61 187.973 1272.63 187.973C1280.37 187.216 1288.13 186.525 1295.92 185.898ZM993.407 678.725C1000.54 663.743 1012.56 651.161 1029.45 640.979C1046.98 630.191 1064.81 624.807 1082.99 624.807C1101.18 624.807 1118.04 630.191 1135.57 640.979C1153.75 651.161 1166.07 663.765 1172.58 678.725L1708.14 1825.81C1713.98 1837.79 1716.89 1850.09 1716.89 1862.67C1716.89 1887.25 1707.17 1908.52 1687.69 1926.49C1668.86 1943.87 1646.14 1952.56 1619.52 1952.56C1601.34 1952.56 1583.49 1947.18 1565.97 1936.39C1548.44 1925.6 1536.12 1912.72 1528.96 1897.74L1362.46 1540.85L807.423 1533.65L637.025 1898.62C630.54 1913.61 618.52 1926.49 601.009 1937.28C583.476 1948.67 565.619 1954.36 547.459 1954.36C520.847 1954.36 497.801 1945.67 478.323 1928.28C459.493 1910.3 450.089 1889.02 450.089 1864.47C450.089 1851.88 453.008 1839.58 458.845 1827.6L993.429 678.725H993.407ZM1082.99 942.11L891.173 1354.73L1277.76 1359.23L1083.02 942.11H1082.99ZM2117.1 487.159C2029.13 462.189 1991.75 443.899 1968.94 414.627C1958.44 401.159 1950.57 384.923 1941.79 358.612C1938.07 347.478 1934.4 335.242 1930.14 321.06L1929.51 318.963C1925.3 304.975 1920.54 289.107 1914.88 271.596C1908.89 253.025 1888.8 252.679 1884.83 252.787C1876.11 253.025 1859.94 257.284 1854.6 271.596L1854.54 271.769C1842.41 316.088 1833.57 346.462 1824.4 370.243C1814.83 395.127 1805.08 412.011 1792.8 424.983C1780.84 437.587 1765.97 447.25 1743.07 457.303C1724.96 465.259 1703.79 472.718 1674.48 483.03C1669.42 484.824 1664.12 486.683 1658.59 488.651C1652.8 490.683 1646.09 496.088 1646.09 504.627C1646.11 513.21 1653.08 518.485 1659.69 520.582L1659.93 520.669C1741.82 545.963 1783.59 568.857 1808.9 602.367C1820.43 617.608 1829.29 635.574 1838.48 662.403C1843.9 678.228 1848.92 695.415 1854.73 715.305C1857.8 725.898 1861 736.837 1864.66 748.987L1864.68 749.052C1870.56 758.975 1883.47 759.343 1887.29 759.213C1894.56 758.975 1904.91 756.165 1910.21 749.031C1928.17 711.867 1937.75 683.828 1944.75 663.354C1952.8 639.854 1958.09 624.31 1967.45 610.15C1983.86 585.223 2010.84 565.161 2112.71 524.646L2121.36 521.209H2121.46L2121.68 521.166C2128.47 518.485 2133.18 511.632 2133.12 504.498C2133.01 492.607 2120.84 488.218 2117.1 487.159ZM1646.66 719.866C1591.9 743.258 1603.44 741.334 1581.35 785.005C1578.45 788.766 1567.68 792.506 1563.42 785.005C1553.46 754.608 1549.2 736.902 1500.9 717.964C1494.96 716.213 1493.68 705.317 1500.9 703.414C1539.92 688.886 1555.6 678.142 1561.98 641.324C1563.51 632.526 1581.15 633.174 1583.33 641.324C1593.28 678.769 1601.9 686.335 1645.23 705.295C1651.91 708.235 1651.63 717.705 1646.63 719.845H1646.66V719.866ZM1807.99 125.516C1726.99 160.02 1744.05 157.209 1711.38 221.591C1707.08 227.147 1691.17 232.66 1684.86 221.591C1670.15 176.796 1663.86 150.723 1592.46 122.835C1583.68 120.262 1581.8 104.199 1592.48 101.41C1650.2 79.9643 1673.35 64.1176 1682.82 9.85376C1685.09 -3.11766 1711.19 -2.16642 1714.39 9.85376C1729.07 65.0472 1741.82 76.181 1805.83 104.091C1815.71 108.415 1815.28 122.359 1807.93 125.516H1807.97H1807.99Z" fill="url(#paint0_linear_20_346)"/>
</g>
<path d="M5183.26 1841.95C5183.26 1891.46 5143.13 1931.6 5093.62 1931.6C5044.11 1931.6 5003.97 1891.46 5003.97 1841.95V1805.33C4924.85 1899.61 4820.47 1946.75 4690.85 1946.75C4591.52 1946.75 4509.87 1918.97 4445.9 1863.42C4383.61 1806.18 4352.46 1732.1 4352.46 1641.19C4352.46 1550.28 4386.13 1481.26 4453.47 1434.12C4520.81 1386.98 4613.41 1363.41 4731.25 1363.41H4988.82V1328.06C4988.82 1203.47 4918.96 1141.18 4779.23 1141.18C4712.19 1141.18 4643.19 1159.94 4572.2 1197.45C4534.45 1217.4 4486.69 1209.41 4461.87 1174.66C4437.41 1140.41 4444 1092.46 4479.75 1070.22C4579.63 1008.1 4688.72 977.041 4807.01 977.041C4923.17 977.041 5014.92 1006.5 5082.26 1065.43C5149.6 1122.67 5183.26 1209.37 5183.26 1325.53V1841.95ZM4986.3 1502.3H4764.08C4620.98 1502.3 4549.43 1546.91 4549.43 1636.14C4549.43 1681.59 4567.11 1716.95 4602.46 1742.2C4637.82 1765.77 4687.48 1777.56 4751.45 1777.56C4817.11 1777.56 4872.66 1759.88 4918.12 1724.52C4963.57 1687.49 4986.3 1639.51 4986.3 1580.58V1502.3Z" fill="white"/>
<path d="M4252.62 1440.91C4252.62 1499.92 4204.79 1547.75 4145.78 1547.75H3515.26C3520.31 1615.1 3551.45 1669.81 3608.69 1711.9C3665.93 1753.99 3732.43 1775.03 3808.18 1775.03C3887.74 1775.03 3953.87 1758.62 4006.58 1725.8C4048.2 1699.89 4105.84 1696.56 4139 1732.68C4167.42 1763.62 4167.39 1811.94 4134.35 1837.88C4041.89 1910.46 3928.12 1946.75 3793.03 1946.75C3658.35 1946.75 3545.56 1902.14 3454.65 1812.91C3363.74 1723.68 3318.29 1605.84 3318.29 1459.37C3318.29 1316.27 3364.59 1200.11 3457.18 1110.88C3549.77 1021.65 3661.72 977.041 3793.03 977.041C3924.34 977.041 4033.77 1016.6 4121.31 1095.73C4208.85 1174.85 4252.62 1280.07 4252.62 1411.39V1440.91ZM4031 1391.19C4044.62 1391.19 4055.77 1380.12 4054.75 1366.54C4049.93 1302.35 4025.82 1250.8 3982.42 1211.89C3935.29 1168.12 3873.84 1146.23 3798.08 1146.23C3722.33 1146.23 3655.83 1168.96 3598.59 1214.42C3549.47 1254.6 3522.07 1305.32 3516.38 1366.56C3515.12 1380.12 3526.3 1391.19 3539.91 1391.19H4031Z" fill="white"/>
<path d="M2180.85 1456.86C2180.85 1315.44 2225.46 1200.12 2314.68 1110.9C2403.91 1021.67 2513.33 977.057 2642.96 977.057C2767.54 977.057 2867.71 1030.09 2943.46 1136.15V719.621C2943.46 665.15 2987.62 620.992 3042.09 620.992H3044.33C3098.8 620.992 3142.96 665.15 3142.96 719.621V1832.98C3142.96 1887.46 3098.8 1931.61 3044.33 1931.61H3042.09C2987.62 1931.61 2943.46 1887.46 2943.46 1832.98V1790.2C2872.76 1894.58 2766.7 1946.77 2625.29 1946.77C2502.39 1946.77 2397.17 1901.31 2309.63 1810.4C2223.77 1717.81 2180.85 1599.96 2180.85 1456.86ZM2668.21 1770C2747.34 1770 2813.84 1741.38 2867.71 1684.14C2921.58 1626.9 2948.52 1553.66 2948.52 1464.44C2948.52 1376.89 2920.74 1302.82 2865.18 1242.21C2811.31 1181.6 2744.81 1151.3 2665.69 1151.3C2586.57 1151.3 2518.38 1181.6 2461.15 1242.21C2405.59 1301.13 2377.81 1375.21 2377.81 1464.44C2377.81 1553.66 2406.43 1626.9 2463.67 1684.14C2520.91 1741.38 2589.09 1770 2668.21 1770Z" fill="white"/>
<path d="M1797.65 1038.21C1797.65 1011.62 1808.85 989.933 1831.24 973.141C1853.63 956.348 1875.32 947.951 1896.31 947.951C1927.09 947.951 1953.33 957.047 1975.02 975.24C1996.71 993.432 2007.56 1017.57 2007.56 1047.66V1048.71L2009.66 1844.24C2009.66 1872.23 1999.16 1896.02 1978.17 1915.61C1957.88 1935.21 1933.39 1945 1904.7 1945C1875.32 1945 1850.48 1935.21 1830.19 1915.61C1809.9 1895.32 1799.75 1871.18 1799.75 1843.19L1797.65 1038.21Z" fill="url(#paint1_linear_20_346)"/>
<defs>
<linearGradient id="paint0_linear_20_346" x1="1279.54" y1="1113.56" x2="1659.25" y2="1919.78" gradientUnits="userSpaceOnUse">
<stop offset="0.0694586" stop-color="#C96BFF"/>
<stop offset="0.828008" stop-color="#5F56E7"/>
</linearGradient>
<linearGradient id="paint1_linear_20_346" x1="1903.65" y1="947.951" x2="1903.65" y2="1945" gradientUnits="userSpaceOnUse">
<stop stop-color="#C66AFE"/>
<stop offset="1" stop-color="#2D48D1"/>
</linearGradient>
<clipPath id="clip0_20_346">
<rect width="2133.13" height="2566.89" fill="white" transform="translate(0.00146484 0.432617)"/>
</clipPath>
</defs>
</svg>
